<svg xmlns="http://www.w3.org/2000/svg" xmlns:svg="http://www.w3.org/2000/svg" xmlns:xlink="http://www.w3.org/1999/xlink" id="svg1342" width="299.925" height="267.068" class="st10" color-interpolation-filters="sRGB" version="1.1" viewBox="0 0 224.944 200.301" xml:space="preserve"><metadata id="metadata1346"/><style id="style996" type="text/css">#shape1029-46 path,#shape1029-46 text,#shape1029-46 tspan{fill:gray!important}.st1{fill:#008bfd;stroke:none;stroke-linecap:round;stroke-linejoin:round;stroke-width:.75}.st2{fill:#000;font-family:Segoe UI;font-size:.833336em}.st3{font-size:1em}.st4,.st5{fill:#0078d7;stroke:none;stroke-linecap:butt;stroke-width:.6375}.st5{fill:gray;stroke-linecap:round;stroke-linejoin:round;stroke-width:.75}.st6,.st7{stroke:#505050}.st6{marker-end:url(#mrkr5-90);stroke-linecap:round;stroke-linejoin:round;stroke-width:1.5}.st7{fill:#505050;fill-opacity:1;stroke-opacity:1;stroke-width:.37313432835821}.st8{fill:none;stroke:none;stroke-linecap:round;stroke-linejoin:round;stroke-width:.75}.st9{fill:#00b0f0;font-family:Segoe UI;font-size:.833336em}.st10{fill:none;fill-rule:evenodd;font-size:12px;overflow:visible;stroke-linecap:square;stroke-miterlimit:3}</style><defs id="Markers"><g id="lend5"><path style="stroke:none" id="path998" d="M 2 1 L 0 0 L 1.98117 -0.993387 C 1.67173 -0.364515 1.67301 0.372641 1.98465 1.00043"/></g><marker id="mrkr5-90" class="st7" markerUnits="strokeWidth" orient="auto" overflow="visible" refX="-4.69"><use id="use1001" transform="scale(-2.68,-2.68)" xlink:href="#lend5"/></marker></defs><g id="g1340"><title id="title1005">Page-1</title><g id="group1001-1" transform="translate(57.7598,-171.515)"><title id="title1007">Web app (Was Websites).1277</title><desc id="desc1009">Daemon Web app</desc><g id="group1002-2"><title id="title1011">Sheet.1002</title><g id="shape1003-3"><title id="title1013">Sheet.1003</title><path id="path1015" d="M22.89 195.92 C20.71 197.63 18.14 198.46 15.6 198.46 C11.99 198.46 8.42 196.8 6.05 193.63 C2.02 188.21 3.02 180.49 8.29 176.34 C10.47 174.62 13.04 173.8 15.58 173.8 C19.2 173.8 22.76 175.47 25.13 178.64 C29.16 184.04 28.16 191.78 22.89 195.92 ZM26.55 177.51 C23.83 173.86 19.73 171.95 15.58 171.95 C12.66 171.95 9.7 172.91 7.19 174.87 C1.15 179.64 0 188.53 4.64 194.75 C7.35 198.39 11.46 200.3 15.6 200.3 C18.53 200.3 21.49 199.36 23.99 197.38 C30.03 192.62 31.18 183.72 26.55 177.51 Z" class="st1"/></g></g><g id="group1004-5" transform="translate(4.95554,-4.39536)"><title id="title1019">Sheet.1004</title><g id="group1005-6" transform="translate(0.341805,-0.176482)"><title id="title1021">Sheet.1005</title><g id="group1006-7" transform="translate(0.437248,3.41061E-13)"><title id="title1023">Sheet.1006</title><g id="shape1007-8"><title id="title1025">Sheet.1007</title><path id="path1027" d="M3.62 193.27 C2.82 192.46 2.18 191.69 1.66 190.92 C0.51 193.34 0.1 195.83 0 197.81 C0.11 197.97 0.11 198.09 0.23 198.25 C0.81 199 1.53 199.72 2.23 200.3 C2.13 198.68 2.27 196.03 3.62 193.27 Z" class="st1"/></g></g><g id="shape1008-10" transform="translate(3.29213,-8.97695)"><title id="title1031">Sheet.1008</title><path id="path1033" d="M4.94 192.81 C3.85 193.58 2.74 194.55 1.61 195.78 C0.99 196.45 0.46 197.14 0 197.83 C0.48 198.63 1.11 199.45 1.9 200.3 C2.49 199.44 3.22 198.58 4.1 197.73 C5.21 196.67 6.25 195.82 7.23 195.13 C6.43 194.37 5.65 193.6 4.94 192.81 Z" class="st1"/></g><g id="group1009-12" transform="translate(9.93516,-15.1958)"><title id="title1036">Sheet.1009</title><g id="shape1010-13"><title id="title1038">Sheet.1010</title><path id="path1040" d="M9.77 198.23 C9.25 197.54 8.66 196.95 8.04 196.4 C6.18 196.11 3.3 196.14 0 197.94 C0.76 198.78 1.51 199.56 2.24 200.3 C6.64 197.87 9.77 198.23 9.77 198.23 Z" class="st1"/></g></g><g id="group1011-15" transform="translate(1.10162E-13,-9.38012)"><title id="title1044">Sheet.1011</title><g id="shape1012-16"><title id="title1046">Sheet.1012</title><path id="path1048" d="M2.1 200.3 C2.44 199.61 2.84 198.92 3.29 198.24 C1.4 195.17 1.49 192.63 1.69 191.44 C1.22 191.95 0.78 192.48 0.4 193.05 C0.02 194.66 -0 197.21 2.1 200.3 Z" class="st1"/></g></g><g id="group1013-18" transform="translate(4.05148,-0.740211)"><title id="title1052">Sheet.1013</title><g id="shape1014-19"><title id="title1054">Sheet.1014</title><path id="path1056" d="M3.41 194.19 C2.53 193.47 1.78 192.76 1.14 192.06 C0.68 192.71 0.31 193.37 0 194.01 C0.6 194.64 1.3 195.27 2.09 195.92 C7.01 199.92 11.9 200.3 14.65 200.3 C14.83 200.3 15.69 199.11 16.19 198.36 C14.96 198.62 9.7 199.3 3.41 194.19 Z" class="st1"/></g></g><g id="group1015-21" transform="translate(2.10339,-7.03041)"><title id="title1060">Sheet.1015</title><g id="shape1016-22"><title id="title1062">Sheet.1016</title><path id="path1064" d="M0 197.95 C0.51 198.71 1.15 199.49 1.95 200.3 C2.26 199.66 2.64 199 3.09 198.35 C2.3 197.5 1.67 196.68 1.19 195.88 C0.72 196.57 0.33 197.27 0 197.95 Z" class="st1"/></g></g><g id="group1017-24" transform="translate(10.5195,-5.3233)"><title id="title1068">Sheet.1017</title><g id="shape1018-25"><title id="title1070">Sheet.1018</title><path id="path1072" d="M0 191.48 C4.49 195.73 9.8 199.36 11.15 200.3 C11.29 199.95 11.38 199.61 11.48 199.25 C10.03 198.14 6.22 195.09 1.65 190.43 C1.12 190.72 0.57 191.07 0 191.48 Z" class="st1"/></g></g><g id="group1019-27" transform="translate(4.98729,-16.4714)"><title id="title1076">Sheet.1019</title><g id="shape1020-28"><title id="title1078">Sheet.1020</title><path id="path1080" d="M4.95 199.21 C3.85 198.03 2.73 196.77 1.59 195.42 C1.04 195.59 0.51 195.82 0 196.08 C0.84 197.49 1.97 198.91 3.24 200.3 C3.82 199.88 4.38 199.52 4.95 199.21 Z" class="st1"/></g></g><g id="shape1021-30" transform="translate(8.13763,-14.0503)"><title id="title1084">Sheet.1021</title><path id="path1086" d="M1.87 196.76 C1.31 197.07 0.57 197.53 0 197.95 C0.72 198.73 1.45 199.54 2.25 200.3 C2.82 199.9 3.59 199.41 4.12 199.11 C3.38 198.38 2.63 197.6 1.87 196.76 Z" class="st1"/></g><g id="shape1022-32" transform="translate(8.1369,-14.0039)"><title id="title1089">Sheet.1022</title><path id="path1091" d="M1.67 196.6 C1.1 196.91 0.57 197.31 0 197.73 C0.72 198.52 1.74 199.54 2.54 200.3 C3.11 199.9 3.59 199.49 4.12 199.19 C3.38 198.46 2.42 197.44 1.67 196.6 Z" class="st1"/></g></g><g id="group1023-34" transform="translate(14.8617,-6.23662)"><title id="title1095">Sheet.1023</title><g id="shape1024-35"><title id="title1097">Sheet.1024</title><path id="path1099" d="M1.34 195.22 C0.22 196.1 0 197.77 0.86 198.92 C1.74 200.09 3.36 200.3 4.49 199.42 C5.61 198.54 5.83 196.87 4.97 195.71 C4.1 194.55 2.49 194.32 1.34 195.22 Z" class="st1"/></g></g><g id="group1025-37" transform="translate(9.65099,-1.98952E-13)"><title id="title1103">Sheet.1025</title><g id="shape1026-38"><title id="title1105">Sheet.1026</title><path id="path1107" d="M1.24 195.59 C0.2 196.41 -0 197.96 0.79 199.03 C1.6 200.1 3.1 200.3 4.15 199.48 C5.19 198.66 5.39 197.12 4.59 196.05 C3.79 194.97 2.29 194.77 1.24 195.59 Z" class="st1"/></g></g><g id="group1027-40" transform="translate(0,-5.36433)"><title id="title1111">Sheet.1027</title><g id="shape1028-41"><title id="title1113">Sheet.1028</title><path id="path1115" d="M1.89 193.14 C0.3 194.4 -0 196.72 1.21 198.35 C2.44 199.99 4.72 200.3 6.31 199.05 C7.9 197.8 8.2 195.47 6.98 193.82 C5.76 192.2 3.48 191.89 1.89 193.14 Z" class="st1"/></g></g></g><g id="shape1001-43"><text id="text1122" x="-3.14" y="213.3" class="st2" style="fill:#008bfd;fill-opacity:1">Daemon<tspan id="tspan1120" x="-5.11" class="st3" dy="1.2em" style="fill:#008bfd;fill-opacity:1">Web app</tspan></text></g></g><g id="shape1029-46" transform="translate(189.503,-95.7592)"><title id="title1126">API App.1305</title><desc id="desc1128">Daemon API App</desc><path id="path1130" d="M21.59 174.79 L1.09 174.79 C0.49 174.79 0 175.28 0 175.89 L0 192.64 C0 193.25 0.49 193.74 1.09 193.74 L6.37 193.74 C6.79 195.09 8.06 196.01 9.58 196.01 C11.4 196.01 12.92 194.48 12.92 192.64 C12.92 190.8 11.4 189.26 9.58 189.26 C8.06 189.26 6.79 190.18 6.37 191.53 L2.18 191.53 L2.18 179.57 L20.49 179.57 L20.49 191.53 L17.04 191.53 C16.55 187.85 13.34 184.97 9.58 184.97 C8.31 184.97 7.03 185.34 5.94 185.89 L6.97 187.85 C7.7 187.42 8.67 187.18 9.52 187.18 C12.43 187.18 14.92 189.63 14.92 192.64 C14.92 195.64 12.49 198.09 9.52 198.09 C8.61 198.09 7.76 197.85 6.97 197.42 L5.94 199.38 C7.03 199.99 8.31 200.3 9.58 200.3 C13.34 200.3 16.55 197.42 17.04 193.74 L21.59 193.74 C22.19 193.74 22.68 193.25 22.68 192.64 L22.68 175.89 C22.68 175.34 22.19 174.79 21.59 174.79 Z" class="st1"/><text id="text1134" x="-7.39" y="213.3" class="st2" style="fill:#008bfd;fill-opacity:1">Daemon<tspan id="tspan1132" x="-6.49" class="st3" dy="1.2em" style="fill:#008bfd;fill-opacity:1">API App</tspan></text></g><g id="group1030-50" transform="translate(58.6844,-93.562)"><title id="title1137">Microsoft Enterprise desktop virtualization.1317</title><desc id="desc1139">Daemon Desktop App</desc><g id="shape1031-51"><title id="title1141">Sheet.1031</title><path id="path1143" d="M14.97 199.54 L0.76 199.54 L0.76 171.16 L14.97 171.16 L14.97 178.83 L15.73 178.83 L15.73 170.39 L0 170.39 L0 200.3 L15.73 200.3 L15.73 197.98 L14.97 197.98 L14.97 199.54 Z" class="st4"/></g><g id="shape1032-53" transform="translate(1.5606,-23.7593)"><title id="title1146">Sheet.1032</title><path id="path1148" d="M12.64 195.71 L0 195.71 L0 200.3 L12.64 200.3 L12.64 195.71 ZM3.06 197.63 L9.59 197.63 L9.59 198.39 L3.06 198.39 L3.06 197.63 ZM9.65 199.47 L9.55 199.47 L3.12 199.47 L3.03 199.47 L3.03 198.71 L3.12 198.71 L9.55 198.71 L9.65 198.71 L9.65 199.47 Z" class="st4"/></g><g id="shape1033-55" transform="translate(1.52875,-19.9374)"><title id="title1151">Sheet.1033</title><path id="path1153" d="M0 197.24 L0 200.3 L8.6 200.3 L8.6 198.77 L12.68 198.77 L12.68 197.24 L0 197.24 Z" class="st4"/></g><g id="shape1034-57" transform="translate(1.52875,-16.4978)"><title id="title1156">Sheet.1034</title><rect id="rect1158" width="8.599" height="2.675" x="0" y="197.626" class="st4"/></g><g id="shape1035-59" transform="translate(1.4969,-1.52875)"><title id="title1161">Sheet.1035</title><path id="path1163" d="M0.03 200.3 L12.68 200.3 L12.68 199.5 L8.6 199.5 L8.6 186.13 L0 186.13 L0 200.3 L0.03 200.3 ZM1.56 197.56 L3.85 197.56 L3.85 198.77 L1.56 198.77 L1.56 197.56 Z" class="st4"/></g><g id="shape1036-61" transform="translate(16.02,-3.43969)"><title id="title1166">Sheet.1036</title><path id="path1168" d="M8.73 199.15 L6.27 199.15 L6.27 197.28 L3.76 197.28 L3.76 199.15 L1.31 199.15 C0.64 199.15 0 199.73 0 200.3 L10.03 200.3 C10.06 199.73 9.4 199.15 8.73 199.15 Z" class="st4"/></g><g id="shape1037-63" transform="translate(11.816,-7.22971)"><title id="title1171">Sheet.1037</title><path id="path1173" d="M17.77 188.96 L0.67 188.96 C0.32 188.96 0 189.22 0 189.57 L0 199.7 C0 200.01 0.29 200.3 0.67 200.3 L17.77 200.3 C18.12 200.3 18.44 200.05 18.44 199.7 L18.44 189.57 C18.44 189.22 18.15 188.96 17.77 188.96 ZM16.75 198.8 L1.69 198.8 L1.69 190.49 L16.75 190.49 L16.75 198.8 Z" class="st4"/></g><g id="shape1038-65" transform="translate(17.931,-9.36359)"><title id="title1176">Sheet.1038</title><path id="path1178" d="M7.01 198.45 L7.01 195.01 L3.5 193.17 L0 194.95 L0 198.49 L3.5 200.3 L7.01 198.45 ZM2.61 196.16 L3.5 195.71 L4.36 196.16 L3.5 196.64 L2.61 196.16 ZM2.64 195.01 L3.5 194.57 L4.36 195.01 L3.5 195.49 L2.64 195.01 ZM4.55 199.54 L3.6 200.05 L3.6 199.12 L4.55 198.61 L4.55 199.54 ZM4.55 198.36 L3.6 198.87 L3.6 197.94 L4.55 197.43 L4.55 198.36 ZM4.55 197.24 L3.6 197.75 L3.6 196.83 L4.55 196.32 L4.55 197.24 ZM3.73 195.59 L4.59 195.14 L5.48 195.59 L4.62 196.03 L3.73 195.59 ZM5.73 198.93 L4.78 199.44 L4.78 198.52 L5.73 198.01 L5.73 198.93 ZM5.73 197.75 L4.78 198.26 L4.78 197.34 L5.73 196.83 L5.73 197.75 ZM5.73 196.61 L4.78 197.12 L4.78 196.22 L5.73 195.71 L5.73 196.61 ZM6.78 198.36 L5.92 198.8 L5.92 197.88 L6.78 197.43 L6.78 198.36 ZM6.78 197.21 L5.92 197.66 L5.92 196.73 L6.78 196.29 L6.78 197.21 ZM6.78 196.07 L5.92 196.51 L5.92 195.59 L6.78 195.14 L6.78 196.07 ZM6.59 195.01 L5.7 195.46 L4.81 195.01 L5.67 194.57 L6.59 195.01 ZM5.48 194.44 L4.59 194.89 L3.73 194.44 L4.59 194 L5.48 194.44 ZM3.5 193.39 L4.36 193.84 L3.5 194.28 L2.61 193.84 L3.5 193.39 ZM2.39 194 L3.25 194.44 L2.39 194.89 L1.53 194.44 L2.39 194 ZM1.31 194.57 L2.2 195.01 L1.31 195.46 L0.41 195.01 L1.31 194.57 ZM1.05 198.84 L0.19 198.39 L0.19 197.47 L1.05 197.91 L1.05 198.84 ZM1.05 197.66 L0.19 197.21 L0.19 196.29 L1.05 196.73 L1.05 197.66 ZM1.05 196.51 L0.19 196.07 L0.19 195.17 L1.05 195.62 L1.05 196.51 ZM2.23 199.44 L1.27 198.93 L1.27 198.01 L2.23 198.52 L2.23 199.44 ZM2.23 198.26 L1.27 197.75 L1.27 196.83 L2.23 197.34 L2.23 198.26 ZM2.23 197.12 L1.27 196.61 L1.27 195.71 L2.23 196.22 L2.23 197.12 ZM1.53 195.59 L2.42 195.14 L3.28 195.59 L2.39 196.07 L1.53 195.59 ZM3.41 200.05 L2.45 199.54 L2.45 198.65 L3.41 199.15 L3.41 200.05 ZM3.41 198.9 L2.45 198.39 L2.45 197.47 L3.41 197.98 L3.41 198.9 ZM3.41 197.75 L2.45 197.24 L2.45 196.32 L3.41 196.83 L3.41 197.75 Z" class="st4"/></g><g id="shape1030-67"><text id="text1183" x="-3.6" y="210.66" class="st2" style="fill:#0078d7;fill-opacity:1">Daemon<tspan id="tspan1181" x="-13.64" class="st3" dy="1.2em" style="fill:#0078d7;fill-opacity:1">Desktop App</tspan></text></g></g><g id="group1039-70" transform="translate(9.07811,-177.893)"><title id="title1187">Certificate.1337</title><desc id="desc1189">Secret</desc><g id="shape1040-71" transform="translate(-9.29257E-14,-5.02924)"><title id="title1191">Sheet.1040</title><path id="path1193" d="M8.29 199.41 L1.57 199.41 C1.23 199.41 0.96 199.16 0.96 198.84 L0.96 192.4 L2.9 192.4 L2.9 190.63 L15.32 190.63 C15.66 190.63 15.94 190.88 15.94 191.2 L15.94 191.29 C16.27 191.37 16.59 191.49 16.9 191.62 L16.9 191.2 C16.9 190.4 16.19 189.74 15.32 189.74 L2.34 189.74 L0 191.94 L0 198.84 C0 199.65 0.7 200.3 1.57 200.3 L8.85 200.3 C8.64 200.02 8.45 199.73 8.29 199.41 Z" class="st5"/></g><g id="group1041-73" transform="translate(8.44762,2.84217E-14)"><title id="title1196">Sheet.1041</title><g id="group1042-74" transform="translate(0.737786,2.84217E-14)"><title id="title1198">Sheet.1042</title><g id="shape1043-75"><title id="title1200">Sheet.1043</title><path id="path1202" d="M7.5 195.94 L9.84 199.2 L7.67 198.66 L7.06 200.3 L4.72 197.42 L2.97 200.3 L2.17 198.56 L0 199.1 L2.14 195.68 C2.14 195.68 2.72 196.6 4.83 196.6 C6.93 196.6 7.5 195.94 7.5 195.94 Z" class="st5"/></g></g><g id="group1044-77" transform="translate(1.9839,-4.95422)"><title id="title1206">Sheet.1044</title><g id="shape1045-78"><title id="title1208">Sheet.1045</title><path id="path1210" d="M3.71 200.3 C1.67 200.3 0 198.77 0 196.89 C-0 195 1.67 193.47 3.71 193.47 C5.76 193.47 7.43 195 7.43 196.89 C7.43 198.77 5.76 200.3 3.71 200.3 ZM3.71 194.24 C2.12 194.24 0.82 195.43 0.82 196.89 C0.82 198.35 2.12 199.54 3.71 199.54 C5.31 199.54 6.61 198.35 6.61 196.89 C6.61 195.43 5.31 194.24 3.71 194.24 Z" class="st5"/></g></g><g id="group1046-80" transform="translate(0,-3.14179)"><title id="title1214">Sheet.1046</title><g id="shape1047-81"><title id="title1216">Sheet.1047</title><path id="path1218" d="M5.7 200.3 C2.56 200.3 0 197.96 0 195.08 C0 192.19 2.56 189.85 5.7 189.85 C8.84 189.85 11.39 192.19 11.39 195.08 C11.39 197.96 8.84 200.3 5.7 200.3 ZM5.7 190.61 C3.01 190.61 0.82 192.62 0.82 195.08 C0.82 197.54 3.01 199.54 5.7 199.54 C8.39 199.54 10.57 197.54 10.57 195.08 C10.57 192.62 8.39 190.61 5.7 190.61 Z" class="st5"/></g></g></g><g id="shape1039-83"><text id="text1223" x="-3.71" y="213.3" class="st2" style="fill:#008bfd;fill-opacity:1">Secret</text></g></g><g id="shape1048-85" transform="translate(88.1321,-185.688)"><title id="title1227">Arrow (Azure Poster Style).1346</title><path id="path1229" d="M0 200.3 L8.17 200.3 A8.16591 8.16591 0 0 1 16.33 208.47 L16.33 250.47 A27 27 -180 0 0 43.33 277.47 L93.9 277.47" class="st6"/></g><g id="shape1049-91" transform="translate(90.1265,-115.602)"><title id="title1232">Arrow (Azure Poster Style).1348</title><path id="path1234" d="M0 207.39 L91.91 207.39" class="st6"/></g><g id="shape1050-96" transform="translate(62.4741,-20.0036)"><title id="title1237">API App.1350</title><desc id="desc1239">Daemon Web API</desc><path id="path1241" d="M21.59 174.79 L1.09 174.79 C0.49 174.79 0 175.28 0 175.89 L0 192.64 C0 193.25 0.49 193.74 1.09 193.74 L6.37 193.74 C6.79 195.09 8.06 196.01 9.58 196.01 C11.4 196.01 12.92 194.48 12.92 192.64 C12.92 190.8 11.4 189.26 9.58 189.26 C8.06 189.26 6.79 190.18 6.37 191.53 L2.18 191.53 L2.18 179.57 L20.49 179.57 L20.49 191.53 L17.04 191.53 C16.55 187.85 13.34 184.97 9.58 184.97 C8.31 184.97 7.03 185.34 5.94 185.89 L6.97 187.85 C7.7 187.42 8.67 187.18 9.52 187.18 C12.43 187.18 14.92 189.63 14.92 192.64 C14.92 195.64 12.49 198.09 9.52 198.09 C8.61 198.09 7.76 197.85 6.97 197.42 L5.94 199.38 C7.03 199.99 8.31 200.3 9.58 200.3 C13.34 200.3 16.55 197.42 17.04 193.74 L21.59 193.74 C22.19 193.74 22.68 193.25 22.68 192.64 L22.68 175.89 C22.68 175.34 22.19 174.79 21.59 174.79 Z" class="st1"/><text id="text1243" x="-27.71" y="213.3" class="st2" style="fill:#008bfd;fill-opacity:1">Daemon Web API</text></g><g id="group1051-99" transform="translate(9.07811,-100.72)"><title id="title1246">Certificate.1385</title><desc id="desc1248">Secret</desc><g id="shape1052-100" transform="translate(-9.29257E-14,-5.02924)"><title id="title1250">Sheet.1052</title><path id="path1252" d="M8.29 199.41 L1.57 199.41 C1.23 199.41 0.96 199.16 0.96 198.84 L0.96 192.4 L2.9 192.4 L2.9 190.63 L15.32 190.63 C15.66 190.63 15.94 190.88 15.94 191.2 L15.94 191.29 C16.27 191.37 16.59 191.49 16.9 191.62 L16.9 191.2 C16.9 190.4 16.19 189.74 15.32 189.74 L2.34 189.74 L0 191.94 L0 198.84 C0 199.65 0.7 200.3 1.57 200.3 L8.85 200.3 C8.64 200.02 8.45 199.73 8.29 199.41 Z" class="st5"/></g><g id="group1053-102" transform="translate(8.44762,2.84217E-14)"><title id="title1255">Sheet.1053</title><g id="group1054-103" transform="translate(0.737786,2.84217E-14)"><title id="title1257">Sheet.1054</title><g id="shape1055-104"><title id="title1259">Sheet.1055</title><path id="path1261" d="M7.5 195.94 L9.84 199.2 L7.67 198.66 L7.06 200.3 L4.72 197.42 L2.97 200.3 L2.17 198.56 L0 199.1 L2.14 195.68 C2.14 195.68 2.72 196.6 4.83 196.6 C6.93 196.6 7.5 195.94 7.5 195.94 Z" class="st5"/></g></g><g id="group1056-106" transform="translate(1.9839,-4.95422)"><title id="title1265">Sheet.1056</title><g id="shape1057-107"><title id="title1267">Sheet.1057</title><path id="path1269" d="M3.71 200.3 C1.67 200.3 0 198.77 0 196.89 C-0 195 1.67 193.47 3.71 193.47 C5.76 193.47 7.43 195 7.43 196.89 C7.43 198.77 5.76 200.3 3.71 200.3 ZM3.71 194.24 C2.12 194.24 0.82 195.43 0.82 196.89 C0.82 198.35 2.12 199.54 3.71 199.54 C5.31 199.54 6.61 198.35 6.61 196.89 C6.61 195.43 5.31 194.24 3.71 194.24 Z" class="st5"/></g></g><g id="group1058-109" transform="translate(0,-3.14179)"><title id="title1273">Sheet.1058</title><g id="shape1059-110"><title id="title1275">Sheet.1059</title><path id="path1277" d="M5.7 200.3 C2.56 200.3 0 197.96 0 195.08 C0 192.19 2.56 189.85 5.7 189.85 C8.84 189.85 11.39 192.19 11.39 195.08 C11.39 197.96 8.84 200.3 5.7 200.3 ZM5.7 190.61 C3.01 190.61 0.82 192.62 0.82 195.08 C0.82 197.54 3.01 199.54 5.7 199.54 C8.39 199.54 10.57 197.54 10.57 195.08 C10.57 192.62 8.39 190.61 5.7 190.61 Z" class="st5"/></g></g></g><g id="shape1051-112"><text id="text1282" x="-3.71" y="213.3" class="st2" style="fill:#008bfd;fill-opacity:1">Secret</text></g></g><g id="group1060-114" transform="translate(9.07811,-29.9249)"><title id="title1286">Certificate.1416</title><desc id="desc1288">Secret</desc><g id="shape1061-115" transform="translate(-9.29257E-14,-5.02924)"><title id="title1290">Sheet.1061</title><path id="path1292" d="M8.29 199.41 L1.57 199.41 C1.23 199.41 0.96 199.16 0.96 198.84 L0.96 192.4 L2.9 192.4 L2.9 190.63 L15.32 190.63 C15.66 190.63 15.94 190.88 15.94 191.2 L15.94 191.29 C16.27 191.37 16.59 191.49 16.9 191.62 L16.9 191.2 C16.9 190.4 16.19 189.74 15.32 189.74 L2.34 189.74 L0 191.94 L0 198.84 C0 199.65 0.7 200.3 1.57 200.3 L8.85 200.3 C8.64 200.02 8.45 199.73 8.29 199.41 Z" class="st5"/></g><g id="group1062-117" transform="translate(8.44762,2.84217E-14)"><title id="title1295">Sheet.1062</title><g id="group1063-118" transform="translate(0.737786,2.84217E-14)"><title id="title1297">Sheet.1063</title><g id="shape1064-119"><title id="title1299">Sheet.1064</title><path id="path1301" d="M7.5 195.94 L9.84 199.2 L7.67 198.66 L7.06 200.3 L4.72 197.42 L2.97 200.3 L2.17 198.56 L0 199.1 L2.14 195.68 C2.14 195.68 2.72 196.6 4.83 196.6 C6.93 196.6 7.5 195.94 7.5 195.94 Z" class="st5"/></g></g><g id="group1065-121" transform="translate(1.9839,-4.95422)"><title id="title1305">Sheet.1065</title><g id="shape1066-122"><title id="title1307">Sheet.1066</title><path id="path1309" d="M3.71 200.3 C1.67 200.3 0 198.77 0 196.89 C-0 195 1.67 193.47 3.71 193.47 C5.76 193.47 7.43 195 7.43 196.89 C7.43 198.77 5.76 200.3 3.71 200.3 ZM3.71 194.24 C2.12 194.24 0.82 195.43 0.82 196.89 C0.82 198.35 2.12 199.54 3.71 199.54 C5.31 199.54 6.61 198.35 6.61 196.89 C6.61 195.43 5.31 194.24 3.71 194.24 Z" class="st5"/></g></g><g id="group1067-124" transform="translate(0,-3.14179)"><title id="title1313">Sheet.1067</title><g id="shape1068-125"><title id="title1315">Sheet.1068</title><path id="path1317" d="M5.7 200.3 C2.56 200.3 0 197.96 0 195.08 C0 192.19 2.56 189.85 5.7 189.85 C8.84 189.85 11.39 192.19 11.39 195.08 C11.39 197.96 8.84 200.3 5.7 200.3 ZM5.7 190.61 C3.01 190.61 0.82 192.62 0.82 195.08 C0.82 197.54 3.01 199.54 5.7 199.54 C8.39 199.54 10.57 197.54 10.57 195.08 C10.57 192.62 8.39 190.61 5.7 190.61 Z" class="st5"/></g></g></g><g id="shape1060-127"><text id="text1322" x="-3.71" y="213.3" class="st2" style="fill:#008bfd;fill-opacity:1">Secret</text></g></g><g id="shape1070-129" transform="translate(85.5828,-32.7595)"><title id="title1326">Arrow (Azure Poster Style).1507</title><path id="path1328" d="M0 200.3 L10.01 200.3 A10.0075 10.0075 -180 0 0 20.01 190.29 L20.01 151.55 A27 27 0 0 1 47.01 124.55 L96.45 124.55" class="st6"/></g><g id="shape1215-134" transform="translate(104.464,-119.188)"><title id="title1331">Sheet.1215</title><desc id="desc1333">Client Credentials flow</desc><rect id="rect1335" width="114.207" height="20" x="0" y="180.301" class="st8"/><text id="text1337" x="7.77" y="193.3" class="st9">Client Credentials flow</text></g></g></svg>