<svg xmlns="http://www.w3.org/2000/svg" xmlns:svg="http://www.w3.org/2000/svg" xmlns:xlink="http://www.w3.org/1999/xlink" id="svg990" width="565.387" height="645.338" class="st11" color-interpolation-filters="sRGB" version="1.1" viewBox="0 0 424.04 484.003" xml:space="preserve"><metadata id="metadata994"/><style id="style10" type="text/css">#group1073-1 path,#group1073-1 text,#group1137-104 path,#group1137-104 text,#group1137-104 tspan,#group1425-245 path,#group1425-245 text,#shape1129-90 path,#shape1129-90 text,#shape1174-173 path,#shape1174-173 text{fill:gray!important}.st1{fill:#008bfd;stroke:none;stroke-linecap:round;stroke-linejoin:round;stroke-width:.75}.st2{fill:#000;font-family:Calibri;font-size:.833336em}.st3{font-size:1em}.st4{fill:#007efd;stroke:none;stroke-linecap:round;stroke-linejoin:round;stroke-width:.75}.st5,.st6{stroke:#505050}.st5{marker-end:url(#mrkr5-117);stroke-linecap:round;stroke-linejoin:round;stroke-width:1.5}.st6{fill:#505050;fill-opacity:1;stroke-opacity:1;stroke-width:.37313432835821}.st7{fill:#0078d7;stroke:none;stroke-linecap:butt;stroke-width:.6375}.st10{stroke-linecap:round;stroke-linejoin:round}.st8{fill:#008bfd;stroke:gray}.st8,.st9{stroke-linecap:round;stroke-linejoin:round;stroke-width:.75}.st10,.st9{fill:#fff}.st9{stroke:none}.st10{stroke:#000;stroke-width:.24}.st11{fill:none;fill-rule:evenodd;font-size:12px;overflow:visible;stroke-linecap:square;stroke-miterlimit:3}</style><defs id="Markers"><g id="lend5"><path style="stroke:none" id="path12" d="M 2 1 L 0 0 L 1.98117 -0.993387 C 1.67173 -0.364515 1.67301 0.372641 1.98465 1.00043"/></g><marker id="mrkr5-117" class="st6" markerUnits="strokeWidth" orient="auto" overflow="visible" refX="-4.69"><use id="use15" transform="scale(-2.68,-2.68)" xlink:href="#lend5"/></marker></defs><g id="g988"><title id="title19">Page-1</title><g id="group1073-1" transform="translate(47.1467,-315.611)"><title id="title21">Web app (Was Websites).1073</title><desc id="desc23">Single Page Application</desc><g id="group1074-2"><title id="title25">Sheet.1074</title><g id="shape1075-3"><title id="title27">Sheet.1075</title><path id="path29" d="M22.89 479.62 C20.71 481.33 18.14 482.16 15.6 482.16 C11.99 482.16 8.42 480.5 6.05 477.33 C2.02 471.92 3.02 464.19 8.29 460.04 C10.47 458.33 13.04 457.51 15.58 457.51 C19.2 457.51 22.76 459.17 25.13 462.34 C29.16 467.74 28.16 475.48 22.89 479.62 ZM26.55 461.21 C23.83 457.56 19.73 455.66 15.58 455.66 C12.66 455.66 9.7 456.61 7.19 458.58 C1.15 463.34 0 472.23 4.64 478.45 C7.35 482.1 11.46 484 15.6 484 C18.53 484 21.49 483.06 23.99 481.08 C30.03 476.33 31.18 467.43 26.55 461.21 Z" class="st1"/></g></g><g id="group1076-5" transform="translate(4.95554,-4.39536)"><title id="title33">Sheet.1076</title><g id="group1077-6" transform="translate(0.341805,-0.176482)"><title id="title35">Sheet.1077</title><g id="group1078-7" transform="translate(0.437248,3.41061E-13)"><title id="title37">Sheet.1078</title><g id="shape1079-8"><title id="title39">Sheet.1079</title><path id="path41" d="M3.62 476.98 C2.82 476.17 2.18 475.39 1.66 474.63 C0.51 477.04 0.1 479.53 0 481.51 C0.11 481.67 0.11 481.79 0.23 481.95 C0.81 482.71 1.53 483.43 2.23 484 C2.13 482.38 2.27 479.73 3.62 476.98 Z" class="st1"/></g></g><g id="shape1080-10" transform="translate(3.29213,-8.97695)"><title id="title45">Sheet.1080</title><path id="path47" d="M4.94 476.51 C3.85 477.28 2.74 478.26 1.61 479.49 C0.99 480.16 0.46 480.84 0 481.54 C0.48 482.33 1.11 483.15 1.9 484 C2.49 483.14 3.22 482.28 4.1 481.44 C5.21 480.37 6.25 479.52 7.23 478.83 C6.43 478.07 5.65 477.3 4.94 476.51 Z" class="st1"/></g><g id="group1081-12" transform="translate(9.93516,-15.1958)"><title id="title50">Sheet.1081</title><g id="shape1082-13"><title id="title52">Sheet.1082</title><path id="path54" d="M9.77 481.93 C9.25 481.24 8.66 480.65 8.04 480.1 C6.18 479.81 3.3 479.85 0 481.64 C0.76 482.48 1.51 483.27 2.24 484 C6.64 481.57 9.77 481.93 9.77 481.93 Z" class="st1"/></g></g><g id="group1083-15" transform="translate(1.10162E-13,-9.38012)"><title id="title58">Sheet.1083</title><g id="shape1084-16"><title id="title60">Sheet.1084</title><path id="path62" d="M2.1 484 C2.44 483.32 2.84 482.62 3.29 481.94 C1.4 478.87 1.49 476.33 1.69 475.15 C1.22 475.66 0.78 476.18 0.4 476.75 C0.02 478.36 -0 480.92 2.1 484 Z" class="st1"/></g></g><g id="group1085-18" transform="translate(4.05148,-0.740211)"><title id="title66">Sheet.1085</title><g id="shape1086-19"><title id="title68">Sheet.1086</title><path id="path70" d="M3.41 477.9 C2.53 477.18 1.78 476.46 1.14 475.76 C0.68 476.42 0.31 477.07 0 477.71 C0.6 478.34 1.3 478.97 2.09 479.62 C7.01 483.63 11.9 484 14.65 484 C14.83 484 15.69 482.81 16.19 482.06 C14.96 482.32 9.7 483.01 3.41 477.9 Z" class="st1"/></g></g><g id="group1087-21" transform="translate(2.10339,-7.03041)"><title id="title74">Sheet.1087</title><g id="shape1088-22"><title id="title76">Sheet.1088</title><path id="path78" d="M0 481.65 C0.51 482.41 1.15 483.19 1.95 484 C2.26 483.36 2.64 482.71 3.09 482.05 C2.3 481.2 1.67 480.38 1.19 479.59 C0.72 480.27 0.33 480.97 0 481.65 Z" class="st1"/></g></g><g id="group1089-24" transform="translate(10.5195,-5.3233)"><title id="title82">Sheet.1089</title><g id="shape1090-25"><title id="title84">Sheet.1090</title><path id="path86" d="M0 475.18 C4.49 479.44 9.8 483.06 11.15 484 C11.29 483.65 11.38 483.31 11.48 482.95 C10.03 481.85 6.22 478.79 1.65 474.13 C1.12 474.43 0.57 474.78 0 475.18 Z" class="st1"/></g></g><g id="group1091-27" transform="translate(4.98729,-16.4714)"><title id="title90">Sheet.1091</title><g id="shape1092-28"><title id="title92">Sheet.1092</title><path id="path94" d="M4.95 482.92 C3.85 481.74 2.73 480.47 1.59 479.12 C1.04 479.29 0.51 479.52 0 479.78 C0.84 481.19 1.97 482.61 3.24 484 C3.82 483.58 4.38 483.22 4.95 482.92 Z" class="st1"/></g></g><g id="shape1093-30" transform="translate(8.13763,-14.0503)"><title id="title98">Sheet.1093</title><path id="path100" d="M1.87 480.46 C1.31 480.77 0.57 481.23 0 481.65 C0.72 482.43 1.45 483.24 2.25 484 C2.82 483.6 3.59 483.12 4.12 482.82 C3.38 482.09 2.63 481.3 1.87 480.46 Z" class="st1"/></g><g id="shape1094-32" transform="translate(8.1369,-14.0039)"><title id="title103">Sheet.1094</title><path id="path105" d="M1.67 480.31 C1.1 480.62 0.57 481.01 0 481.43 C0.72 482.22 1.74 483.24 2.54 484 C3.11 483.6 3.59 483.2 4.12 482.89 C3.38 482.17 2.42 481.14 1.67 480.31 Z" class="st1"/></g></g><g id="group1095-34" transform="translate(14.8617,-6.23662)"><title id="title109">Sheet.1095</title><g id="shape1096-35"><title id="title111">Sheet.1096</title><path id="path113" d="M1.34 478.92 C0.22 479.8 0 481.47 0.86 482.62 C1.74 483.79 3.36 484 4.49 483.12 C5.61 482.24 5.83 480.57 4.97 479.41 C4.1 478.26 2.49 478.02 1.34 478.92 Z" class="st1"/></g></g><g id="group1097-37" transform="translate(9.65099,-1.7053E-13)"><title id="title117">Sheet.1097</title><g id="shape1098-38"><title id="title119">Sheet.1098</title><path id="path121" d="M1.24 479.29 C0.2 480.11 -0 481.66 0.79 482.73 C1.6 483.8 3.1 484 4.15 483.18 C5.19 482.36 5.39 480.82 4.59 479.75 C3.79 478.68 2.29 478.47 1.24 479.29 Z" class="st1"/></g></g><g id="group1099-40" transform="translate(0,-5.36433)"><title id="title125">Sheet.1099</title><g id="shape1100-41"><title id="title127">Sheet.1100</title><path id="path129" d="M1.89 476.84 C0.3 478.1 -0 480.42 1.21 482.05 C2.44 483.69 4.72 484 6.31 482.75 C7.9 481.5 8.2 479.17 6.98 477.52 C5.76 475.91 3.48 475.59 1.89 476.84 Z" class="st1"/></g></g></g><g id="shape1073-43"><text id="text136" x="-7.42" y="497.01" class="st2" style="fill:#008bfd;fill-opacity:1">Single Page<tspan id="tspan134" x="-8.58" class="st3" dy="1.2em" style="fill:#008bfd;fill-opacity:1"> </tspan>Application</text></g></g><g id="group1101-46" transform="translate(47.1467,-245.807)"><title id="title140">Web app (Was Websites).1101</title><desc id="desc142">Web app</desc><g id="group1102-47"><title id="title144">Sheet.1102</title><g id="shape1103-48"><title id="title146">Sheet.1103</title><path id="path148" d="M22.89 479.62 C20.71 481.33 18.14 482.16 15.6 482.16 C11.99 482.16 8.42 480.5 6.05 477.33 C2.02 471.92 3.02 464.19 8.29 460.04 C10.47 458.33 13.04 457.51 15.58 457.51 C19.2 457.51 22.76 459.17 25.13 462.34 C29.16 467.74 28.16 475.48 22.89 479.62 ZM26.55 461.21 C23.83 457.56 19.73 455.66 15.58 455.66 C12.66 455.66 9.7 456.61 7.19 458.58 C1.15 463.34 0 472.23 4.64 478.45 C7.35 482.1 11.46 484 15.6 484 C18.53 484 21.49 483.06 23.99 481.08 C30.03 476.33 31.18 467.43 26.55 461.21 Z" class="st1"/></g></g><g id="group1104-50" transform="translate(4.95554,-4.39536)"><title id="title152">Sheet.1104</title><g id="group1105-51" transform="translate(0.341805,-0.176482)"><title id="title154">Sheet.1105</title><g id="group1106-52" transform="translate(0.437248,3.41061E-13)"><title id="title156">Sheet.1106</title><g id="shape1107-53"><title id="title158">Sheet.1107</title><path id="path160" d="M3.62 476.98 C2.82 476.17 2.18 475.39 1.66 474.63 C0.51 477.04 0.1 479.53 0 481.51 C0.11 481.67 0.11 481.79 0.23 481.95 C0.81 482.71 1.53 483.43 2.23 484 C2.13 482.38 2.27 479.73 3.62 476.98 Z" class="st1"/></g></g><g id="shape1108-55" transform="translate(3.29213,-8.97695)"><title id="title164">Sheet.1108</title><path id="path166" d="M4.94 476.51 C3.85 477.28 2.74 478.26 1.61 479.49 C0.99 480.16 0.46 480.84 0 481.54 C0.48 482.33 1.11 483.15 1.9 484 C2.49 483.14 3.22 482.28 4.1 481.44 C5.21 480.37 6.25 479.52 7.23 478.83 C6.43 478.07 5.65 477.3 4.94 476.51 Z" class="st1"/></g><g id="group1109-57" transform="translate(9.93516,-15.1958)"><title id="title169">Sheet.1109</title><g id="shape1110-58"><title id="title171">Sheet.1110</title><path id="path173" d="M9.77 481.93 C9.25 481.24 8.66 480.65 8.04 480.1 C6.18 479.81 3.3 479.85 0 481.64 C0.76 482.48 1.51 483.27 2.24 484 C6.64 481.57 9.77 481.93 9.77 481.93 Z" class="st1"/></g></g><g id="group1111-60" transform="translate(1.10162E-13,-9.38012)"><title id="title177">Sheet.1111</title><g id="shape1112-61"><title id="title179">Sheet.1112</title><path id="path181" d="M2.1 484 C2.44 483.32 2.84 482.62 3.29 481.94 C1.4 478.87 1.49 476.33 1.69 475.15 C1.22 475.66 0.78 476.18 0.4 476.75 C0.02 478.36 -0 480.92 2.1 484 Z" class="st1"/></g></g><g id="group1113-63" transform="translate(4.05148,-0.740211)"><title id="title185">Sheet.1113</title><g id="shape1114-64"><title id="title187">Sheet.1114</title><path id="path189" d="M3.41 477.9 C2.53 477.18 1.78 476.46 1.14 475.76 C0.68 476.42 0.31 477.07 0 477.71 C0.6 478.34 1.3 478.97 2.09 479.62 C7.01 483.63 11.9 484 14.65 484 C14.83 484 15.69 482.81 16.19 482.06 C14.96 482.32 9.7 483.01 3.41 477.9 Z" class="st1"/></g></g><g id="group1115-66" transform="translate(2.10339,-7.03041)"><title id="title193">Sheet.1115</title><g id="shape1116-67"><title id="title195">Sheet.1116</title><path id="path197" d="M0 481.65 C0.51 482.41 1.15 483.19 1.95 484 C2.26 483.36 2.64 482.71 3.09 482.05 C2.3 481.2 1.67 480.38 1.19 479.59 C0.72 480.27 0.33 480.97 0 481.65 Z" class="st1"/></g></g><g id="group1117-69" transform="translate(10.5195,-5.3233)"><title id="title201">Sheet.1117</title><g id="shape1118-70"><title id="title203">Sheet.1118</title><path id="path205" d="M0 475.18 C4.49 479.44 9.8 483.06 11.15 484 C11.29 483.65 11.38 483.31 11.48 482.95 C10.03 481.85 6.22 478.79 1.65 474.13 C1.12 474.43 0.57 474.78 0 475.18 Z" class="st1"/></g></g><g id="group1119-72" transform="translate(4.98729,-16.4714)"><title id="title209">Sheet.1119</title><g id="shape1120-73"><title id="title211">Sheet.1120</title><path id="path213" d="M4.95 482.92 C3.85 481.74 2.73 480.47 1.59 479.12 C1.04 479.29 0.51 479.52 0 479.78 C0.84 481.19 1.97 482.61 3.24 484 C3.82 483.58 4.38 483.22 4.95 482.92 Z" class="st1"/></g></g><g id="shape1121-75" transform="translate(8.13763,-14.0503)"><title id="title217">Sheet.1121</title><path id="path219" d="M1.87 480.46 C1.31 480.77 0.57 481.23 0 481.65 C0.72 482.43 1.45 483.24 2.25 484 C2.82 483.6 3.59 483.12 4.12 482.82 C3.38 482.09 2.63 481.3 1.87 480.46 Z" class="st1"/></g><g id="shape1122-77" transform="translate(8.1369,-14.0039)"><title id="title222">Sheet.1122</title><path id="path224" d="M1.67 480.31 C1.1 480.62 0.57 481.01 0 481.43 C0.72 482.22 1.74 483.24 2.54 484 C3.11 483.6 3.59 483.2 4.12 482.89 C3.38 482.17 2.42 481.14 1.67 480.31 Z" class="st1"/></g></g><g id="group1123-79" transform="translate(14.8617,-6.23662)"><title id="title228">Sheet.1123</title><g id="shape1124-80"><title id="title230">Sheet.1124</title><path id="path232" d="M1.34 478.92 C0.22 479.8 0 481.47 0.86 482.62 C1.74 483.79 3.36 484 4.49 483.12 C5.61 482.24 5.83 480.57 4.97 479.41 C4.1 478.26 2.49 478.02 1.34 478.92 Z" class="st1"/></g></g><g id="group1125-82" transform="translate(9.65099,-1.7053E-13)"><title id="title236">Sheet.1125</title><g id="shape1126-83"><title id="title238">Sheet.1126</title><path id="path240" d="M1.24 479.29 C0.2 480.11 -0 481.66 0.79 482.73 C1.6 483.8 3.1 484 4.15 483.18 C5.19 482.36 5.39 480.82 4.59 479.75 C3.79 478.68 2.29 478.47 1.24 479.29 Z" class="st1"/></g></g><g id="group1127-85" transform="translate(0,-5.36433)"><title id="title244">Sheet.1127</title><g id="shape1128-86"><title id="title246">Sheet.1128</title><path id="path248" d="M1.89 476.84 C0.3 478.1 -0 480.42 1.21 482.05 C2.44 483.69 4.72 484 6.31 482.75 C7.9 481.5 8.2 479.17 6.98 477.52 C5.76 475.91 3.48 475.59 1.89 476.84 Z" class="st1"/></g></g></g><g id="shape1101-88"><text id="text253" x="-3.25" y="497.01" class="st2" style="fill:#008bfd;fill-opacity:1">Web app</text></g></g><g id="shape1129-90" transform="translate(283.84,-174.516)"><title id="title257">API App.1129</title><desc id="desc259">API App</desc><path id="path261" d="M21.59 458.49 L1.09 458.49 C0.49 458.49 0 458.98 0 459.6 L0 476.34 C0 476.95 0.49 477.44 1.09 477.44 L6.37 477.44 C6.79 478.79 8.06 479.71 9.58 479.71 C11.4 479.71 12.92 478.18 12.92 476.34 C12.92 474.5 11.4 472.96 9.58 472.96 C8.06 472.96 6.79 473.88 6.37 475.23 L2.18 475.23 L2.18 463.27 L20.49 463.27 L20.49 475.23 L17.04 475.23 C16.55 471.55 13.34 468.67 9.58 468.67 C8.31 468.67 7.03 469.04 5.94 469.59 L6.97 471.55 C7.7 471.12 8.67 470.88 9.52 470.88 C12.43 470.88 14.92 473.33 14.92 476.34 C14.92 479.34 12.49 481.8 9.52 481.8 C8.61 481.8 7.76 481.55 6.97 481.12 L5.94 483.08 C7.03 483.7 8.31 484 9.58 484 C13.34 484 16.55 481.12 17.04 477.44 L21.59 477.44 C22.19 477.44 22.68 476.95 22.68 476.34 L22.68 459.6 C22.68 459.04 22.19 458.49 21.59 458.49 Z" class="st1"/><text id="text263" x="-4.67" y="497.01" class="st2" style="fill:#008bfd;fill-opacity:1">API App</text></g><g id="group1130-93" transform="translate(52.8159,-32.0037)"><title id="title266">IoT Hub.1130</title><desc id="desc268">Browserless app</desc><g id="group1131-94"><title id="title270">Sheet.1131</title><g id="group1132-95"><title id="title272">Sheet.1132</title><g id="group1133-96"><title id="title274">Sheet.1133</title><g id="group1134-97"><title id="title276">Sheet.1134</title></g><g id="group1135-98" transform="translate(0.825382,-0.752561)"><title id="title279">Sheet.1135</title></g></g></g><g id="shape1136-99" transform="translate(0.750347,-0.801256)"><title id="title284">Sheet.1136</title><path id="path286" d="M23.64 460 L17.56 460 C17.33 460 17.18 460.15 17.18 460.45 L17.18 462.63 C17.18 462.86 17.33 463.01 17.56 463.01 L21.01 463.01 L21.01 466.39 C21.01 466.62 21.16 466.77 21.46 466.77 L23.64 466.77 C23.86 466.77 24.01 466.62 24.01 466.39 L24.01 460.37 C24.01 460.15 23.86 460 23.64 460 ZM6.45 480.99 L3 480.99 L3 477.61 C3 477.38 2.85 477.23 2.55 477.23 L0.38 477.23 C0.15 477.23 0 477.38 0 477.61 L0 483.63 C-0 483.85 0.15 484 0.38 484 L6.45 484 C6.68 484 6.83 483.85 6.83 483.55 L6.83 481.37 C6.83 481.14 6.68 480.99 6.45 480.99 ZM20.03 477.31 C19.88 477.31 19.73 477.31 19.58 477.38 L17.26 473.32 C17.78 472.79 18.16 472.11 18.16 471.29 C18.16 469.78 16.88 468.5 15.38 468.5 C15.01 468.5 14.63 468.58 14.26 468.73 L11.78 465.26 C12.16 464.89 12.31 464.36 12.31 463.76 C12.31 462.48 11.26 461.43 9.98 461.43 C8.7 461.43 7.65 462.48 7.65 463.76 C7.65 465.04 8.7 466.09 9.98 466.09 C10.28 466.09 10.5 466.02 10.73 465.94 L13.21 469.48 C12.91 469.86 12.61 470.31 12.53 470.91 L5.33 471.51 C5.03 470.91 4.43 470.53 3.68 470.53 C2.63 470.53 1.8 471.36 1.8 472.41 C1.8 473.47 2.63 474.3 3.68 474.3 C4.58 474.3 5.4 473.62 5.55 472.71 L12.61 472.11 C12.76 472.56 12.98 472.94 13.28 473.32 L11.48 476.25 L11.26 476.25 C10.2 476.25 9.38 477.08 9.38 478.13 C9.38 479.19 10.2 480.01 11.26 480.01 C12.31 480.01 13.13 479.19 13.13 478.13 C13.13 477.61 12.91 477.15 12.61 476.78 L14.33 473.92 C14.63 473.99 14.93 474.07 15.31 474.07 C15.61 474.07 15.83 473.99 16.13 473.92 L18.46 477.98 C18.08 478.36 17.78 478.96 17.78 479.56 C17.78 480.77 18.76 481.75 19.96 481.75 C21.16 481.75 22.14 480.77 22.14 479.56 C22.14 478.36 21.23 477.31 20.03 477.31 Z" class="st4"/></g></g><g id="shape1130-101"><text id="text292" x="-11.65" y="497.01" class="st2" style="fill:#007efd;fill-opacity:1">Browserless<tspan id="tspan290" x="5.11" class="st3" dy="1.2em" style="fill:#007efd;fill-opacity:1">app</tspan></text></g></g><g id="group1137-104" transform="translate(52.8159,-170.335)"><title id="title296">Mobile App (Was Mobile Services).1137</title><desc id="desc298">Mobile App</desc><g id="shape1138-105"><title id="title300">Sheet.1138</title><path id="path302" d="M18.35 450 L18.35 449.99 L1.49 449.99 L1.5 450 C0.02 450.05 0 450.4 0 452.23 L0 481.78 C0 483.61 0.03 483.95 1.49 484 C1.49 484 1.93 484 2.01 484 L17.84 484 C17.91 484 18.35 484 18.35 484 C19.82 483.95 19.84 483.61 19.84 481.78 L19.84 452.23 C19.84 450.4 19.82 450.05 18.35 450 ZM7.59 451.15 L12.26 451.15 C12.34 451.15 12.41 451.24 12.41 451.33 C12.41 451.42 12.34 451.51 12.26 451.51 L7.59 451.51 C7.5 451.51 7.43 451.42 7.43 451.33 C7.43 451.24 7.5 451.15 7.59 451.15 ZM7.71 482.24 L6.57 482.24 C6.38 482.24 6.23 482.17 6.23 481.97 C6.23 481.78 6.38 481.71 6.57 481.71 L7.71 481.71 C7.9 481.71 8.06 481.78 8.06 481.97 C8.05 482.17 7.9 482.24 7.71 482.24 ZM10.7 482.44 L9.15 482.44 C8.89 482.44 8.68 482.33 8.68 482.07 C8.68 481.81 8.89 481.71 9.15 481.71 L10.7 481.7 C10.96 481.71 11.17 481.8 11.17 482.07 C11.17 482.33 10.96 482.44 10.7 482.44 ZM13.29 482.24 L12.15 482.24 C11.97 482.24 11.81 482.16 11.81 481.97 C11.81 481.78 11.97 481.7 12.15 481.7 L13.29 481.7 C13.48 481.7 13.63 481.78 13.63 481.97 C13.63 482.16 13.48 482.24 13.29 482.24 ZM18.41 478.79 C18.41 480.35 18.27 480.69 16.85 480.71 L9.18 480.71 L2.99 480.71 C1.58 480.69 1.43 480.35 1.43 478.79 L1.43 454.21 C1.43 452.58 1.59 452.58 3.17 452.58 L9.18 452.58 L16.67 452.58 C18.26 452.58 18.42 452.58 18.42 454.21 L18.41 478.79 Z" class="st1"/></g><g id="shape1139-107" transform="translate(2.39497,-4.40465)"><title id="title305">Sheet.1139</title><path id="path307" d="M15.05 459.61 C15.05 458.04 14.86 458.03 13.32 458.03 L1.69 458.03 C0.15 458.03 0 458.04 0 459.61 L0 482.15 C0 483.72 0.16 484 1.69 484 L13.32 484 C14.86 484 15.05 483.72 15.05 482.14 L15.05 459.61 ZM7.08 476.26 L2.31 473.43 L2.31 467.77 L7.08 470.59 L7.08 476.26 ZM2.77 466.99 L7.53 464.18 L12.31 467.01 L7.56 469.82 L2.77 466.99 ZM12.74 473.43 L7.97 476.26 L7.97 470.63 L12.74 467.81 L12.74 473.43 Z" class="st1"/></g><g id="shape1137-109"><text id="text312" x="-4.4" y="497.01" class="st2" style="fill:#008bfd;fill-opacity:1">Mobile<tspan id="tspan310" x="1.77" class="st3" dy="1.2em" style="fill:#008bfd;fill-opacity:1">App</tspan></text></g></g><g id="shape1140-112" transform="translate(77.519,-329.784)"><title id="title316">Arrow (Azure Poster Style).1140</title><path id="path318" d="M0 484 L73.52 484 A27 27 0 0 1 100.52 511 L100.52 599.52 A27 27 -180 0 0 127.52 626.52 L198.85 626.52" class="st5"/></g><g id="group1141-118" transform="translate(52.8159,-98.9722)"><title id="title321">Microsoft Enterprise desktop virtualization.1141</title><desc id="desc323">Desktop App</desc><g id="shape1142-119"><title id="title325">Sheet.1142</title><path id="path327" d="M14.97 483.24 L0.76 483.24 L0.76 454.86 L14.97 454.86 L14.97 462.54 L15.73 462.54 L15.73 454.1 L0 454.1 L0 484 L15.73 484 L15.73 481.68 L14.97 481.68 L14.97 483.24 Z" class="st7"/></g><g id="shape1143-121" transform="translate(1.5606,-23.7593)"><title id="title330">Sheet.1143</title><path id="path332" d="M12.64 479.42 L0 479.42 L0 484 L12.64 484 L12.64 479.42 ZM3.06 481.33 L9.59 481.33 L9.59 482.09 L3.06 482.09 L3.06 481.33 ZM9.65 483.18 L9.55 483.18 L3.12 483.18 L3.03 483.18 L3.03 482.41 L3.12 482.41 L9.55 482.41 L9.65 482.41 L9.65 483.18 Z" class="st7"/></g><g id="shape1144-123" transform="translate(1.52875,-19.9374)"><title id="title335">Sheet.1144</title><path id="path337" d="M0 480.95 L0 484 L8.6 484 L8.6 482.47 L12.68 482.47 L12.68 480.95 L0 480.95 Z" class="st7"/></g><g id="shape1145-125" transform="translate(1.52875,-16.4978)"><title id="title340">Sheet.1145</title><rect id="rect342" width="8.599" height="2.675" x="0" y="481.328" class="st7"/></g><g id="shape1146-127" transform="translate(1.4969,-1.52875)"><title id="title345">Sheet.1146</title><path id="path347" d="M0.03 484 L12.68 484 L12.68 483.21 L8.6 483.21 L8.6 469.83 L0 469.83 L0 484 L0.03 484 ZM1.56 481.26 L3.85 481.26 L3.85 482.47 L1.56 482.47 L1.56 481.26 Z" class="st7"/></g><g id="shape1147-129" transform="translate(16.02,-3.43969)"><title id="title350">Sheet.1147</title><path id="path352" d="M8.73 482.86 L6.27 482.86 L6.27 480.98 L3.76 480.98 L3.76 482.86 L1.31 482.86 C0.64 482.86 0 483.43 0 484 L10.03 484 C10.06 483.43 9.4 482.86 8.73 482.86 Z" class="st7"/></g><g id="shape1148-131" transform="translate(11.816,-7.22971)"><title id="title355">Sheet.1148</title><path id="path357" d="M17.77 472.67 L0.67 472.67 C0.32 472.67 0 472.92 0 473.27 L0 483.4 C0 483.72 0.29 484 0.67 484 L17.77 484 C18.12 484 18.44 483.75 18.44 483.4 L18.44 473.27 C18.44 472.92 18.15 472.67 17.77 472.67 ZM16.75 482.51 L1.69 482.51 L1.69 474.19 L16.75 474.19 L16.75 482.51 Z" class="st7"/></g><g id="shape1149-133" transform="translate(17.931,-9.36359)"><title id="title360">Sheet.1149</title><path id="path362" d="M7.01 482.16 L7.01 478.72 L3.5 476.87 L0 478.65 L0 482.19 L3.5 484 L7.01 482.16 ZM2.61 479.86 L3.5 479.42 L4.36 479.86 L3.5 480.34 L2.61 479.86 ZM2.64 478.72 L3.5 478.27 L4.36 478.72 L3.5 479.19 L2.64 478.72 ZM4.55 483.24 L3.6 483.75 L3.6 482.82 L4.55 482.32 L4.55 483.24 ZM4.55 482.06 L3.6 482.57 L3.6 481.65 L4.55 481.14 L4.55 482.06 ZM4.55 480.95 L3.6 481.46 L3.6 480.53 L4.55 480.02 L4.55 480.95 ZM3.73 479.29 L4.59 478.84 L5.48 479.29 L4.62 479.74 L3.73 479.29 ZM5.73 482.63 L4.78 483.14 L4.78 482.22 L5.73 481.71 L5.73 482.63 ZM5.73 481.46 L4.78 481.96 L4.78 481.04 L5.73 480.53 L5.73 481.46 ZM5.73 480.31 L4.78 480.82 L4.78 479.93 L5.73 479.42 L5.73 480.31 ZM6.78 482.06 L5.92 482.51 L5.92 481.58 L6.78 481.14 L6.78 482.06 ZM6.78 480.91 L5.92 481.36 L5.92 480.44 L6.78 479.99 L6.78 480.91 ZM6.78 479.77 L5.92 480.21 L5.92 479.29 L6.78 478.84 L6.78 479.77 ZM6.59 478.72 L5.7 479.16 L4.81 478.72 L5.67 478.27 L6.59 478.72 ZM5.48 478.14 L4.59 478.59 L3.73 478.14 L4.59 477.7 L5.48 478.14 ZM3.5 477.09 L4.36 477.54 L3.5 477.98 L2.61 477.54 L3.5 477.09 ZM2.39 477.7 L3.25 478.14 L2.39 478.59 L1.53 478.14 L2.39 477.7 ZM1.31 478.27 L2.2 478.72 L1.31 479.16 L0.41 478.72 L1.31 478.27 ZM1.05 482.54 L0.19 482.09 L0.19 481.17 L1.05 481.61 L1.05 482.54 ZM1.05 481.36 L0.19 480.91 L0.19 479.99 L1.05 480.44 L1.05 481.36 ZM1.05 480.21 L0.19 479.77 L0.19 478.88 L1.05 479.32 L1.05 480.21 ZM2.23 483.14 L1.27 482.63 L1.27 481.71 L2.23 482.22 L2.23 483.14 ZM2.23 481.96 L1.27 481.46 L1.27 480.53 L2.23 481.04 L2.23 481.96 ZM2.23 480.82 L1.27 480.31 L1.27 479.42 L2.23 479.93 L2.23 480.82 ZM1.53 479.29 L2.42 478.84 L3.28 479.29 L2.39 479.77 L1.53 479.29 ZM3.41 483.75 L2.45 483.24 L2.45 482.35 L3.41 482.86 L3.41 483.75 ZM3.41 482.6 L2.45 482.09 L2.45 481.17 L3.41 481.68 L3.41 482.6 ZM3.41 481.46 L2.45 480.95 L2.45 480.02 L3.41 480.53 L3.41 481.46 Z" class="st7"/></g><g id="shape1141-135"><text id="text365" x="-10.88" y="494.36" class="st2" style="fill:#0078d7;fill-opacity:1">Desktop App</text></g></g><g id="group1150-137" transform="translate(0.375,-315.611)"><title id="title369">User Permissions.1150</title><g id="group1151-138"><title id="title371">Sheet.1151</title><g id="group1152-139"><title id="title373">Sheet.1152</title><g id="group1153-140" transform="translate(3.8518,-6.4617)"><title id="title375">Sheet.1153</title><g id="shape1154-141"><title id="title377">Sheet.1154</title><path id="path379" d="M3.62 474.12 C1.32 474.68 0 477.23 0.66 479.78 C1.32 482.34 3.62 484 5.93 483.45 C8.23 482.89 9.55 480.34 8.89 477.79 C8.34 475.12 5.93 473.46 3.62 474.12 Z" class="st1"/></g></g><g id="group1155-143"><title id="title383">Sheet.1155</title><g id="shape1156-144"><title id="title385">Sheet.1156</title><path id="path387" d="M12.41 477.68 C11.97 477.68 11.53 478.45 10.87 478.79 C10.21 479.12 9.55 479.67 7.69 478.79 C5.82 477.9 5.6 477.12 4.06 477.12 C2.53 477.12 0 479.9 0 484 L15.59 484 C15.59 484 15.37 481.23 14.49 479.78 C13.39 477.68 12.85 477.68 12.41 477.68 Z" class="st1"/></g></g></g></g><g id="group1157-146" transform="translate(9.0485,-0.85947)"><title id="title393">Sheet.1157</title><g id="shape1158-147"><title id="title395">Sheet.1158</title><path id="path397" d="M4.77 473.59 L0.65 473.59 C0.33 473.59 0 473.92 0 474.25 L0 477.1 C0 477.43 0.33 477.76 0.76 477.76 L1.52 477.76 L1.52 482.91 C1.52 483.56 1.95 484 2.49 484 C3.03 484 3.47 483.56 3.47 483.02 C3.58 483.02 3.68 483.02 3.68 483.02 C3.68 483.02 3.68 482.47 3.68 482.36 C3.68 482.14 4.01 482.03 4.01 482.03 C4.01 482.03 4.01 481.7 4.01 481.7 C3.68 481.59 3.47 481.37 3.47 481.26 L3.47 480.94 C3.58 480.83 3.68 480.72 3.68 480.72 C3.79 480.61 4.01 480.17 4.01 480.17 C4.01 480.17 3.68 479.73 3.68 479.62 C3.58 479.51 3.58 479.29 3.47 479.18 L3.47 478.96 C3.58 478.42 4.23 477.87 4.23 477.87 L4.77 477.87 C5.09 477.87 5.42 477.54 5.42 477.21 L5.42 474.25 C5.42 473.92 5.2 473.59 4.77 473.59 ZM2.38 483.13 C2.38 483.35 2.38 483.46 2.17 483.46 C1.95 483.46 1.95 483.24 1.95 483.13 L1.95 478.31 C1.95 478.09 2.06 477.98 2.17 477.98 C2.38 477.98 2.38 478.2 2.38 478.31 L2.38 483.13 ZM2.71 475.35 C2.38 475.35 2.06 475.02 2.06 474.69 C2.06 474.36 2.38 474.03 2.71 474.03 C3.03 474.03 3.36 474.36 3.36 474.69 C3.36 475.02 3.14 475.35 2.71 475.35 Z" class="st8"/></g><g id="shape1159-149" transform="translate(1.92482,-0.570755)"><title id="title400">Sheet.1159</title><path id="path402" d="M0.22 484 C0.11 484 0 483.89 0 483.78 L0 478.79 C0 478.67 0.11 478.56 0.22 478.56 C0.33 478.56 0.44 478.67 0.44 478.79 L0.44 483.89 C0.44 484 0.33 484 0.22 484 Z" class="st9"/></g><g id="shape1160-151" transform="translate(2.05993,-8.66317)"><title id="title405">Sheet.1160</title><ellipse id="ellipse407" cx=".659" cy="483.337" class="st9" rx=".659" ry=".666"/></g></g></g><g id="shape1170-153" transform="translate(77.519,-259.981)"><title id="title412">Arrow (Azure Poster Style).1170</title><path id="path414" d="M0 484 L73.52 484 A27 27 0 0 1 100.52 511 L100.52 529.71 A27 27 -180 0 0 127.52 556.71 L198.85 556.71" class="st5"/></g><g id="shape1171-158" transform="translate(73.8939,-194.394)"><title id="title417">Arrow (Azure Poster Style).1171</title><path id="path419" d="M0 491.05 L202.48 491.12" class="st5"/></g><g id="shape1172-163" transform="translate(84.258,-113.925)"><title id="title422">Arrow (Azure Poster Style).1172</title><path id="path424" d="M0 484 L70.75 484 A27 27 -180 0 0 97.75 457 L97.75 437.66 A27 27 0 0 1 124.75 410.66 L192.12 410.66" class="st5"/></g><g id="shape1173-168" transform="translate(72.2879,-44.7596)"><title id="title427">Arrow (Azure Poster Style).1173</title><path id="path429" d="M0 484 L82.72 484 A27 27 -180 0 0 109.72 457 L109.72 368.49 A27 27 0 0 1 136.72 341.49 L204.09 341.49" class="st5"/></g><g id="shape1174-173" transform="translate(391.556,-174.516)"><title id="title432">API App.1174</title><desc id="desc434">API App</desc><path id="path436" d="M21.59 458.49 L1.09 458.49 C0.49 458.49 0 458.98 0 459.6 L0 476.34 C0 476.95 0.49 477.44 1.09 477.44 L6.37 477.44 C6.79 478.79 8.06 479.71 9.58 479.71 C11.4 479.71 12.92 478.18 12.92 476.34 C12.92 474.5 11.4 472.96 9.58 472.96 C8.06 472.96 6.79 473.88 6.37 475.23 L2.18 475.23 L2.18 463.27 L20.49 463.27 L20.49 475.23 L17.04 475.23 C16.55 471.55 13.34 468.67 9.58 468.67 C8.31 468.67 7.03 469.04 5.94 469.59 L6.97 471.55 C7.7 471.12 8.67 470.88 9.52 470.88 C12.43 470.88 14.92 473.33 14.92 476.34 C14.92 479.34 12.49 481.8 9.52 481.8 C8.61 481.8 7.76 481.55 6.97 481.12 L5.94 483.08 C7.03 483.7 8.31 484 9.58 484 C13.34 484 16.55 481.12 17.04 477.44 L21.59 477.44 C22.19 477.44 22.68 476.95 22.68 476.34 L22.68 459.6 C22.68 459.04 22.19 458.49 21.59 458.49 Z" class="st1"/><text id="text438" x="-4.67" y="497.01" class="st2" style="fill:#008bfd;fill-opacity:1">API App</text></g><g id="shape1175-176" transform="translate(306.948,-180.185)"><title id="title441">Arrow (Azure Poster Style).1175</title><path id="path443" d="M0 476.92 L77.14 476.92" class="st5"/></g><g id="group1176-181" transform="translate(2.85532,-251.477)"><title id="title446">User Permissions.1176</title><g id="group1177-182"><title id="title448">Sheet.1177</title><g id="group1178-183"><title id="title450">Sheet.1178</title><g id="group1179-184" transform="translate(3.8518,-6.4617)"><title id="title452">Sheet.1179</title><g id="shape1180-185"><title id="title454">Sheet.1180</title><path id="path456" d="M3.62 474.12 C1.32 474.68 0 477.23 0.66 479.78 C1.32 482.34 3.62 484 5.93 483.45 C8.23 482.89 9.55 480.34 8.89 477.79 C8.34 475.12 5.93 473.46 3.62 474.12 Z" class="st1"/></g></g><g id="group1181-187"><title id="title460">Sheet.1181</title><g id="shape1182-188"><title id="title462">Sheet.1182</title><path id="path464" d="M12.41 477.68 C11.97 477.68 11.53 478.45 10.87 478.79 C10.21 479.12 9.55 479.67 7.69 478.79 C5.82 477.9 5.6 477.12 4.06 477.12 C2.53 477.12 0 479.9 0 484 L15.59 484 C15.59 484 15.37 481.23 14.49 479.78 C13.39 477.68 12.85 477.68 12.41 477.68 Z" class="st1"/></g></g></g></g><g id="group1183-190" transform="translate(9.0485,-0.85947)"><title id="title470">Sheet.1183</title><g id="shape1184-191"><title id="title472">Sheet.1184</title><path id="path474" d="M4.77 473.59 L0.65 473.59 C0.33 473.59 0 473.92 0 474.25 L0 477.1 C0 477.43 0.33 477.76 0.76 477.76 L1.52 477.76 L1.52 482.91 C1.52 483.56 1.95 484 2.49 484 C3.03 484 3.47 483.56 3.47 483.02 C3.58 483.02 3.68 483.02 3.68 483.02 C3.68 483.02 3.68 482.47 3.68 482.36 C3.68 482.14 4.01 482.03 4.01 482.03 C4.01 482.03 4.01 481.7 4.01 481.7 C3.68 481.59 3.47 481.37 3.47 481.26 L3.47 480.94 C3.58 480.83 3.68 480.72 3.68 480.72 C3.79 480.61 4.01 480.17 4.01 480.17 C4.01 480.17 3.68 479.73 3.68 479.62 C3.58 479.51 3.58 479.29 3.47 479.18 L3.47 478.96 C3.58 478.42 4.23 477.87 4.23 477.87 L4.77 477.87 C5.09 477.87 5.42 477.54 5.42 477.21 L5.42 474.25 C5.42 473.92 5.2 473.59 4.77 473.59 ZM2.38 483.13 C2.38 483.35 2.38 483.46 2.17 483.46 C1.95 483.46 1.95 483.24 1.95 483.13 L1.95 478.31 C1.95 478.09 2.06 477.98 2.17 477.98 C2.38 477.98 2.38 478.2 2.38 478.31 L2.38 483.13 ZM2.71 475.35 C2.38 475.35 2.06 475.02 2.06 474.69 C2.06 474.36 2.38 474.03 2.71 474.03 C3.03 474.03 3.36 474.36 3.36 474.69 C3.36 475.02 3.14 475.35 2.71 475.35 Z" class="st8"/></g><g id="shape1185-193" transform="translate(1.92482,-0.570755)"><title id="title477">Sheet.1185</title><path id="path479" d="M0.22 484 C0.11 484 0 483.89 0 483.78 L0 478.79 C0 478.67 0.11 478.56 0.22 478.56 C0.33 478.56 0.44 478.67 0.44 478.79 L0.44 483.89 C0.44 484 0.33 484 0.22 484 Z" class="st9"/></g><g id="shape1186-195" transform="translate(2.05993,-8.66317)"><title id="title482">Sheet.1186</title><ellipse id="ellipse484" cx=".659" cy="483.337" class="st9" rx=".659" ry=".666"/></g></g></g><g id="group1187-197" transform="translate(0.375,-391.083)"><title id="title489">User Permissions.1187</title><g id="group1188-198"><title id="title491">Sheet.1188</title><g id="group1189-199"><title id="title493">Sheet.1189</title><g id="group1190-200" transform="translate(3.8518,-6.4617)"><title id="title495">Sheet.1190</title><g id="shape1191-201"><title id="title497">Sheet.1191</title><path id="path499" d="M3.62 474.12 C1.32 474.68 0 477.23 0.66 479.78 C1.32 482.34 3.62 484 5.93 483.45 C8.23 482.89 9.55 480.34 8.89 477.79 C8.34 475.12 5.93 473.46 3.62 474.12 Z" class="st1"/></g></g><g id="group1192-203"><title id="title503">Sheet.1192</title><g id="shape1193-204"><title id="title505">Sheet.1193</title><path id="path507" d="M12.41 477.68 C11.97 477.68 11.53 478.45 10.87 478.79 C10.21 479.12 9.55 479.67 7.69 478.79 C5.82 477.9 5.6 477.12 4.06 477.12 C2.53 477.12 0 479.9 0 484 L15.59 484 C15.59 484 15.37 481.23 14.49 479.78 C13.39 477.68 12.85 477.68 12.41 477.68 Z" class="st1"/></g></g></g></g><g id="group1194-206" transform="translate(9.0485,-0.85947)"><title id="title513">Sheet.1194</title><g id="shape1195-207"><title id="title515">Sheet.1195</title><path id="path517" d="M4.77 473.59 L0.65 473.59 C0.33 473.59 0 473.92 0 474.25 L0 477.1 C0 477.43 0.33 477.76 0.76 477.76 L1.52 477.76 L1.52 482.91 C1.52 483.56 1.95 484 2.49 484 C3.03 484 3.47 483.56 3.47 483.02 C3.58 483.02 3.68 483.02 3.68 483.02 C3.68 483.02 3.68 482.47 3.68 482.36 C3.68 482.14 4.01 482.03 4.01 482.03 C4.01 482.03 4.01 481.7 4.01 481.7 C3.68 481.59 3.47 481.37 3.47 481.26 L3.47 480.94 C3.58 480.83 3.68 480.72 3.68 480.72 C3.79 480.61 4.01 480.17 4.01 480.17 C4.01 480.17 3.68 479.73 3.68 479.62 C3.58 479.51 3.58 479.29 3.47 479.18 L3.47 478.96 C3.58 478.42 4.23 477.87 4.23 477.87 L4.77 477.87 C5.09 477.87 5.42 477.54 5.42 477.21 L5.42 474.25 C5.42 473.92 5.2 473.59 4.77 473.59 ZM2.38 483.13 C2.38 483.35 2.38 483.46 2.17 483.46 C1.95 483.46 1.95 483.24 1.95 483.13 L1.95 478.31 C1.95 478.09 2.06 477.98 2.17 477.98 C2.38 477.98 2.38 478.2 2.38 478.31 L2.38 483.13 ZM2.71 475.35 C2.38 475.35 2.06 475.02 2.06 474.69 C2.06 474.36 2.38 474.03 2.71 474.03 C3.03 474.03 3.36 474.36 3.36 474.69 C3.36 475.02 3.14 475.35 2.71 475.35 Z" class="st8"/></g><g id="shape1196-209" transform="translate(1.92482,-0.570755)"><title id="title520">Sheet.1196</title><path id="path522" d="M0.22 484 C0.11 484 0 483.89 0 483.78 L0 478.79 C0 478.67 0.11 478.56 0.22 478.56 C0.33 478.56 0.44 478.67 0.44 478.79 L0.44 483.89 C0.44 484 0.33 484 0.22 484 Z" class="st9"/></g><g id="shape1197-211" transform="translate(2.05993,-8.66317)"><title id="title525">Sheet.1197</title><ellipse id="ellipse527" cx=".659" cy="483.337" class="st9" rx=".659" ry=".666"/></g></g></g><g id="group1198-213" transform="translate(2.85532,-98.9722)"><title id="title532">User Permissions.1198</title><g id="group1199-214"><title id="title534">Sheet.1199</title><g id="group1200-215"><title id="title536">Sheet.1200</title><g id="group1201-216" transform="translate(3.8518,-6.4617)"><title id="title538">Sheet.1201</title><g id="shape1202-217"><title id="title540">Sheet.1202</title><path id="path542" d="M3.62 474.12 C1.32 474.68 0 477.23 0.66 479.78 C1.32 482.34 3.62 484 5.93 483.45 C8.23 482.89 9.55 480.34 8.89 477.79 C8.34 475.12 5.93 473.46 3.62 474.12 Z" class="st1"/></g></g><g id="group1203-219"><title id="title546">Sheet.1203</title><g id="shape1204-220"><title id="title548">Sheet.1204</title><path id="path550" d="M12.41 477.68 C11.97 477.68 11.53 478.45 10.87 478.79 C10.21 479.12 9.55 479.67 7.69 478.79 C5.82 477.9 5.6 477.12 4.06 477.12 C2.53 477.12 0 479.9 0 484 L15.59 484 C15.59 484 15.37 481.23 14.49 479.78 C13.39 477.68 12.85 477.68 12.41 477.68 Z" class="st1"/></g></g></g></g><g id="group1205-222" transform="translate(9.0485,-0.85947)"><title id="title556">Sheet.1205</title><g id="shape1206-223"><title id="title558">Sheet.1206</title><path id="path560" d="M4.77 473.59 L0.65 473.59 C0.33 473.59 0 473.92 0 474.25 L0 477.1 C0 477.43 0.33 477.76 0.76 477.76 L1.52 477.76 L1.52 482.91 C1.52 483.56 1.95 484 2.49 484 C3.03 484 3.47 483.56 3.47 483.02 C3.58 483.02 3.68 483.02 3.68 483.02 C3.68 483.02 3.68 482.47 3.68 482.36 C3.68 482.14 4.01 482.03 4.01 482.03 C4.01 482.03 4.01 481.7 4.01 481.7 C3.68 481.59 3.47 481.37 3.47 481.26 L3.47 480.94 C3.58 480.83 3.68 480.72 3.68 480.72 C3.79 480.61 4.01 480.17 4.01 480.17 C4.01 480.17 3.68 479.73 3.68 479.62 C3.58 479.51 3.58 479.29 3.47 479.18 L3.47 478.96 C3.58 478.42 4.23 477.87 4.23 477.87 L4.77 477.87 C5.09 477.87 5.42 477.54 5.42 477.21 L5.42 474.25 C5.42 473.92 5.2 473.59 4.77 473.59 ZM2.38 483.13 C2.38 483.35 2.38 483.46 2.17 483.46 C1.95 483.46 1.95 483.24 1.95 483.13 L1.95 478.31 C1.95 478.09 2.06 477.98 2.17 477.98 C2.38 477.98 2.38 478.2 2.38 478.31 L2.38 483.13 ZM2.71 475.35 C2.38 475.35 2.06 475.02 2.06 474.69 C2.06 474.36 2.38 474.03 2.71 474.03 C3.03 474.03 3.36 474.36 3.36 474.69 C3.36 475.02 3.14 475.35 2.71 475.35 Z" class="st8"/></g><g id="shape1207-225" transform="translate(1.92482,-0.570755)"><title id="title563">Sheet.1207</title><path id="path565" d="M0.22 484 C0.11 484 0 483.89 0 483.78 L0 478.79 C0 478.67 0.11 478.56 0.22 478.56 C0.33 478.56 0.44 478.67 0.44 478.79 L0.44 483.89 C0.44 484 0.33 484 0.22 484 Z" class="st9"/></g><g id="shape1208-227" transform="translate(2.05993,-8.66317)"><title id="title568">Sheet.1208</title><ellipse id="ellipse570" cx=".659" cy="483.337" class="st9" rx=".659" ry=".666"/></g></g></g><g id="group1218-229" transform="translate(2.85532,-36.2556)"><title id="title575">User Permissions.1218</title><g id="group1219-230"><title id="title577">Sheet.1219</title><g id="group1220-231"><title id="title579">Sheet.1220</title><g id="group1221-232" transform="translate(3.8518,-6.4617)"><title id="title581">Sheet.1221</title><g id="shape1222-233"><title id="title583">Sheet.1222</title><path id="path585" d="M3.62 474.12 C1.32 474.68 0 477.23 0.66 479.78 C1.32 482.34 3.62 484 5.93 483.45 C8.23 482.89 9.55 480.34 8.89 477.79 C8.34 475.12 5.93 473.46 3.62 474.12 Z" class="st1"/></g></g><g id="group1223-235"><title id="title589">Sheet.1223</title><g id="shape1224-236"><title id="title591">Sheet.1224</title><path id="path593" d="M12.41 477.68 C11.97 477.68 11.53 478.45 10.87 478.79 C10.21 479.12 9.55 479.67 7.69 478.79 C5.82 477.9 5.6 477.12 4.06 477.12 C2.53 477.12 0 479.9 0 484 L15.59 484 C15.59 484 15.37 481.23 14.49 479.78 C13.39 477.68 12.85 477.68 12.41 477.68 Z" class="st1"/></g></g></g></g><g id="group1225-238" transform="translate(9.0485,-0.85947)"><title id="title599">Sheet.1225</title><g id="shape1226-239"><title id="title601">Sheet.1226</title><path id="path603" d="M4.77 473.59 L0.65 473.59 C0.33 473.59 0 473.92 0 474.25 L0 477.1 C0 477.43 0.33 477.76 0.76 477.76 L1.52 477.76 L1.52 482.91 C1.52 483.56 1.95 484 2.49 484 C3.03 484 3.47 483.56 3.47 483.02 C3.58 483.02 3.68 483.02 3.68 483.02 C3.68 483.02 3.68 482.47 3.68 482.36 C3.68 482.14 4.01 482.03 4.01 482.03 C4.01 482.03 4.01 481.7 4.01 481.7 C3.68 481.59 3.47 481.37 3.47 481.26 L3.47 480.94 C3.58 480.83 3.68 480.72 3.68 480.72 C3.79 480.61 4.01 480.17 4.01 480.17 C4.01 480.17 3.68 479.73 3.68 479.62 C3.58 479.51 3.58 479.29 3.47 479.18 L3.47 478.96 C3.58 478.42 4.23 477.87 4.23 477.87 L4.77 477.87 C5.09 477.87 5.42 477.54 5.42 477.21 L5.42 474.25 C5.42 473.92 5.2 473.59 4.77 473.59 ZM2.38 483.13 C2.38 483.35 2.38 483.46 2.17 483.46 C1.95 483.46 1.95 483.24 1.95 483.13 L1.95 478.31 C1.95 478.09 2.06 477.98 2.17 477.98 C2.38 477.98 2.38 478.2 2.38 478.31 L2.38 483.13 ZM2.71 475.35 C2.38 475.35 2.06 475.02 2.06 474.69 C2.06 474.36 2.38 474.03 2.71 474.03 C3.03 474.03 3.36 474.36 3.36 474.69 C3.36 475.02 3.14 475.35 2.71 475.35 Z" class="st8"/></g><g id="shape1227-241" transform="translate(1.92482,-0.570755)"><title id="title606">Sheet.1227</title><path id="path608" d="M0.22 484 C0.11 484 0 483.89 0 483.78 L0 478.79 C0 478.67 0.11 478.56 0.22 478.56 C0.33 478.56 0.44 478.67 0.44 478.79 L0.44 483.89 C0.44 484 0.33 484 0.22 484 Z" class="st9"/></g><g id="shape1228-243" transform="translate(2.05993,-8.66317)"><title id="title611">Sheet.1228</title><ellipse id="ellipse613" cx=".659" cy="483.337" class="st9" rx=".659" ry=".666"/></g></g></g><g id="group1425-245" transform="translate(47.1467,-455.217)"><title id="title618">Web app (Was Websites).1425</title><desc id="desc620">Single Page Application</desc><g id="group1426-246"><title id="title622">Sheet.1426</title><g id="shape1427-247"><title id="title624">Sheet.1427</title><path id="path626" d="M22.89 479.62 C20.71 481.33 18.14 482.16 15.6 482.16 C11.99 482.16 8.42 480.5 6.05 477.33 C2.02 471.92 3.02 464.19 8.29 460.04 C10.47 458.33 13.04 457.51 15.58 457.51 C19.2 457.51 22.76 459.17 25.13 462.34 C29.16 467.74 28.16 475.48 22.89 479.62 ZM26.55 461.21 C23.83 457.56 19.73 455.66 15.58 455.66 C12.66 455.66 9.7 456.61 7.19 458.58 C1.15 463.34 0 472.23 4.64 478.45 C7.35 482.1 11.46 484 15.6 484 C18.53 484 21.49 483.06 23.99 481.08 C30.03 476.33 31.18 467.43 26.55 461.21 Z" class="st1"/></g></g><g id="group1428-249" transform="translate(4.95554,-4.39536)"><title id="title630">Sheet.1428</title><g id="group1429-250" transform="translate(0.341805,-0.176482)"><title id="title632">Sheet.1429</title><g id="group1430-251" transform="translate(0.437248,3.41061E-13)"><title id="title634">Sheet.1430</title><g id="shape1431-252"><title id="title636">Sheet.1431</title><path id="path638" d="M3.62 476.98 C2.82 476.17 2.18 475.39 1.66 474.63 C0.51 477.04 0.1 479.53 0 481.51 C0.11 481.67 0.11 481.79 0.23 481.95 C0.81 482.71 1.53 483.43 2.23 484 C2.13 482.38 2.27 479.73 3.62 476.98 Z" class="st1"/></g></g><g id="shape1432-254" transform="translate(3.29213,-8.97695)"><title id="title642">Sheet.1432</title><path id="path644" d="M4.94 476.51 C3.85 477.28 2.74 478.26 1.61 479.49 C0.99 480.16 0.46 480.84 0 481.54 C0.48 482.33 1.11 483.15 1.9 484 C2.49 483.14 3.22 482.28 4.1 481.44 C5.21 480.37 6.25 479.52 7.23 478.83 C6.43 478.07 5.65 477.3 4.94 476.51 Z" class="st1"/></g><g id="group1433-256" transform="translate(9.93516,-15.1958)"><title id="title647">Sheet.1433</title><g id="shape1434-257"><title id="title649">Sheet.1434</title><path id="path651" d="M9.77 481.93 C9.25 481.24 8.66 480.65 8.04 480.1 C6.18 479.81 3.3 479.85 0 481.64 C0.76 482.48 1.51 483.27 2.24 484 C6.64 481.57 9.77 481.93 9.77 481.93 Z" class="st1"/></g></g><g id="group1435-259" transform="translate(1.10162E-13,-9.38012)"><title id="title655">Sheet.1435</title><g id="shape1436-260"><title id="title657">Sheet.1436</title><path id="path659" d="M2.1 484 C2.44 483.32 2.84 482.62 3.29 481.94 C1.4 478.87 1.49 476.33 1.69 475.15 C1.22 475.66 0.78 476.18 0.4 476.75 C0.02 478.36 -0 480.92 2.1 484 Z" class="st1"/></g></g><g id="group1437-262" transform="translate(4.05148,-0.740211)"><title id="title663">Sheet.1437</title><g id="shape1438-263"><title id="title665">Sheet.1438</title><path id="path667" d="M3.41 477.9 C2.53 477.18 1.78 476.46 1.14 475.76 C0.68 476.42 0.31 477.07 0 477.71 C0.6 478.34 1.3 478.97 2.09 479.62 C7.01 483.63 11.9 484 14.65 484 C14.83 484 15.69 482.81 16.19 482.06 C14.96 482.32 9.7 483.01 3.41 477.9 Z" class="st1"/></g></g><g id="group1439-265" transform="translate(2.10339,-7.03041)"><title id="title671">Sheet.1439</title><g id="shape1440-266"><title id="title673">Sheet.1440</title><path id="path675" d="M0 481.65 C0.51 482.41 1.15 483.19 1.95 484 C2.26 483.36 2.64 482.71 3.09 482.05 C2.3 481.2 1.67 480.38 1.19 479.59 C0.72 480.27 0.33 480.97 0 481.65 Z" class="st1"/></g></g><g id="group1441-268" transform="translate(10.5195,-5.3233)"><title id="title679">Sheet.1441</title><g id="shape1442-269"><title id="title681">Sheet.1442</title><path id="path683" d="M0 475.18 C4.49 479.44 9.8 483.06 11.15 484 C11.29 483.65 11.38 483.31 11.48 482.95 C10.03 481.85 6.22 478.79 1.65 474.13 C1.12 474.43 0.57 474.78 0 475.18 Z" class="st1"/></g></g><g id="group1443-271" transform="translate(4.98729,-16.4714)"><title id="title687">Sheet.1443</title><g id="shape1444-272"><title id="title689">Sheet.1444</title><path id="path691" d="M4.95 482.92 C3.85 481.74 2.73 480.47 1.59 479.12 C1.04 479.29 0.51 479.52 0 479.78 C0.84 481.19 1.97 482.61 3.24 484 C3.82 483.58 4.38 483.22 4.95 482.92 Z" class="st1"/></g></g><g id="shape1445-274" transform="translate(8.13763,-14.0503)"><title id="title695">Sheet.1445</title><path id="path697" d="M1.87 480.46 C1.31 480.77 0.57 481.23 0 481.65 C0.72 482.43 1.45 483.24 2.25 484 C2.82 483.6 3.59 483.12 4.12 482.82 C3.38 482.09 2.63 481.3 1.87 480.46 Z" class="st1"/></g><g id="shape1446-276" transform="translate(8.1369,-14.0039)"><title id="title700">Sheet.1446</title><path id="path702" d="M1.67 480.31 C1.1 480.62 0.57 481.01 0 481.43 C0.72 482.22 1.74 483.24 2.54 484 C3.11 483.6 3.59 483.2 4.12 482.89 C3.38 482.17 2.42 481.14 1.67 480.31 Z" class="st1"/></g></g><g id="group1447-278" transform="translate(14.8617,-6.23662)"><title id="title706">Sheet.1447</title><g id="shape1448-279"><title id="title708">Sheet.1448</title><path id="path710" d="M1.34 478.92 C0.22 479.8 0 481.47 0.86 482.62 C1.74 483.79 3.36 484 4.49 483.12 C5.61 482.24 5.83 480.57 4.97 479.41 C4.1 478.26 2.49 478.02 1.34 478.92 Z" class="st1"/></g></g><g id="group1449-281" transform="translate(9.65099,-1.7053E-13)"><title id="title714">Sheet.1449</title><g id="shape1450-282"><title id="title716">Sheet.1450</title><path id="path718" d="M1.24 479.29 C0.2 480.11 -0 481.66 0.79 482.73 C1.6 483.8 3.1 484 4.15 483.18 C5.19 482.36 5.39 480.82 4.59 479.75 C3.79 478.68 2.29 478.47 1.24 479.29 Z" class="st1"/></g></g><g id="group1451-284" transform="translate(0,-5.36433)"><title id="title722">Sheet.1451</title><g id="shape1452-285"><title id="title724">Sheet.1452</title><path id="path726" d="M1.89 476.84 C0.3 478.1 -0 480.42 1.21 482.05 C2.44 483.69 4.72 484 6.31 482.75 C7.9 481.5 8.2 479.17 6.98 477.52 C5.76 475.91 3.48 475.59 1.89 476.84 Z" class="st1"/></g></g></g><g id="shape1425-287"><text id="text733" x="-7.42" y="497.01" class="st2" style="fill:#008bfd;fill-opacity:1">Single Page<tspan id="tspan731" x="-8.58" class="st3" dy="1.2em" style="fill:#008bfd;fill-opacity:1"> </tspan>Application</text></g></g><g id="group1453-290" transform="translate(0.375,-460.886)"><title id="title737">User Permissions.1453</title><g id="group1454-291"><title id="title739">Sheet.1454</title><g id="group1455-292"><title id="title741">Sheet.1455</title><g id="group1456-293" transform="translate(3.8518,-6.4617)"><title id="title743">Sheet.1456</title><g id="shape1457-294"><title id="title745">Sheet.1457</title><path id="path747" d="M3.62 474.12 C1.32 474.68 0 477.23 0.66 479.78 C1.32 482.34 3.62 484 5.93 483.45 C8.23 482.89 9.55 480.34 8.89 477.79 C8.34 475.12 5.93 473.46 3.62 474.12 Z" class="st1"/></g></g><g id="group1458-296"><title id="title751">Sheet.1458</title><g id="shape1459-297"><title id="title753">Sheet.1459</title><path id="path755" d="M12.41 477.68 C11.97 477.68 11.53 478.45 10.87 478.79 C10.21 479.12 9.55 479.67 7.69 478.79 C5.82 477.9 5.6 477.12 4.06 477.12 C2.53 477.12 0 479.9 0 484 L15.59 484 C15.59 484 15.37 481.23 14.49 479.78 C13.39 477.68 12.85 477.68 12.41 477.68 Z" class="st1"/></g></g></g></g><g id="group1460-299" transform="translate(9.0485,-0.85947)"><title id="title761">Sheet.1460</title><g id="shape1461-300"><title id="title763">Sheet.1461</title><path id="path765" d="M4.77 473.59 L0.65 473.59 C0.33 473.59 0 473.92 0 474.25 L0 477.1 C0 477.43 0.33 477.76 0.76 477.76 L1.52 477.76 L1.52 482.91 C1.52 483.56 1.95 484 2.49 484 C3.03 484 3.47 483.56 3.47 483.02 C3.58 483.02 3.68 483.02 3.68 483.02 C3.68 483.02 3.68 482.47 3.68 482.36 C3.68 482.14 4.01 482.03 4.01 482.03 C4.01 482.03 4.01 481.7 4.01 481.7 C3.68 481.59 3.47 481.37 3.47 481.26 L3.47 480.94 C3.58 480.83 3.68 480.72 3.68 480.72 C3.79 480.61 4.01 480.17 4.01 480.17 C4.01 480.17 3.68 479.73 3.68 479.62 C3.58 479.51 3.58 479.29 3.47 479.18 L3.47 478.96 C3.58 478.42 4.23 477.87 4.23 477.87 L4.77 477.87 C5.09 477.87 5.42 477.54 5.42 477.21 L5.42 474.25 C5.42 473.92 5.2 473.59 4.77 473.59 ZM2.38 483.13 C2.38 483.35 2.38 483.46 2.17 483.46 C1.95 483.46 1.95 483.24 1.95 483.13 L1.95 478.31 C1.95 478.09 2.06 477.98 2.17 477.98 C2.38 477.98 2.38 478.2 2.38 478.31 L2.38 483.13 ZM2.71 475.35 C2.38 475.35 2.06 475.02 2.06 474.69 C2.06 474.36 2.38 474.03 2.71 474.03 C3.03 474.03 3.36 474.36 3.36 474.69 C3.36 475.02 3.14 475.35 2.71 475.35 Z" class="st8"/></g><g id="shape1462-302" transform="translate(1.92482,-0.570755)"><title id="title768">Sheet.1462</title><path id="path770" d="M0.22 484 C0.11 484 0 483.89 0 483.78 L0 478.79 C0 478.67 0.11 478.56 0.22 478.56 C0.33 478.56 0.44 478.67 0.44 478.79 L0.44 483.89 C0.44 484 0.33 484 0.22 484 Z" class="st9"/></g><g id="shape1463-304" transform="translate(2.05993,-8.66317)"><title id="title773">Sheet.1463</title><ellipse id="ellipse775" cx=".659" cy="483.337" class="st9" rx=".659" ry=".666"/></g></g></g><g id="group1464-306" transform="translate(47.1467,-385.414)"><title id="title780">Web app (Was Websites).1464</title><desc id="desc782">Web app</desc><g id="group1465-307"><title id="title784">Sheet.1465</title><g id="shape1466-308"><title id="title786">Sheet.1466</title><path id="path788" d="M22.89 479.62 C20.71 481.33 18.14 482.16 15.6 482.16 C11.99 482.16 8.42 480.5 6.05 477.33 C2.02 471.92 3.02 464.19 8.29 460.04 C10.47 458.33 13.04 457.51 15.58 457.51 C19.2 457.51 22.76 459.17 25.13 462.34 C29.16 467.74 28.16 475.48 22.89 479.62 ZM26.55 461.21 C23.83 457.56 19.73 455.66 15.58 455.66 C12.66 455.66 9.7 456.61 7.19 458.58 C1.15 463.34 0 472.23 4.64 478.45 C7.35 482.1 11.46 484 15.6 484 C18.53 484 21.49 483.06 23.99 481.08 C30.03 476.33 31.18 467.43 26.55 461.21 Z" class="st1"/></g></g><g id="group1467-310" transform="translate(4.95554,-4.39536)"><title id="title792">Sheet.1467</title><g id="group1468-311" transform="translate(0.341805,-0.176482)"><title id="title794">Sheet.1468</title><g id="group1469-312" transform="translate(0.437248,3.41061E-13)"><title id="title796">Sheet.1469</title><g id="shape1470-313"><title id="title798">Sheet.1470</title><path id="path800" d="M3.62 476.98 C2.82 476.17 2.18 475.39 1.66 474.63 C0.51 477.04 0.1 479.53 0 481.51 C0.11 481.67 0.11 481.79 0.23 481.95 C0.81 482.71 1.53 483.43 2.23 484 C2.13 482.38 2.27 479.73 3.62 476.98 Z" class="st1"/></g></g><g id="shape1471-315" transform="translate(3.29213,-8.97695)"><title id="title804">Sheet.1471</title><path id="path806" d="M4.94 476.51 C3.85 477.28 2.74 478.26 1.61 479.49 C0.99 480.16 0.46 480.84 0 481.54 C0.48 482.33 1.11 483.15 1.9 484 C2.49 483.14 3.22 482.28 4.1 481.44 C5.21 480.37 6.25 479.52 7.23 478.83 C6.43 478.07 5.65 477.3 4.94 476.51 Z" class="st1"/></g><g id="group1472-317" transform="translate(9.93516,-15.1958)"><title id="title809">Sheet.1472</title><g id="shape1473-318"><title id="title811">Sheet.1473</title><path id="path813" d="M9.77 481.93 C9.25 481.24 8.66 480.65 8.04 480.1 C6.18 479.81 3.3 479.85 0 481.64 C0.76 482.48 1.51 483.27 2.24 484 C6.64 481.57 9.77 481.93 9.77 481.93 Z" class="st1"/></g></g><g id="group1474-320" transform="translate(1.10162E-13,-9.38012)"><title id="title817">Sheet.1474</title><g id="shape1475-321"><title id="title819">Sheet.1475</title><path id="path821" d="M2.1 484 C2.44 483.32 2.84 482.62 3.29 481.94 C1.4 478.87 1.49 476.33 1.69 475.15 C1.22 475.66 0.78 476.18 0.4 476.75 C0.02 478.36 -0 480.92 2.1 484 Z" class="st1"/></g></g><g id="group1476-323" transform="translate(4.05148,-0.740211)"><title id="title825">Sheet.1476</title><g id="shape1477-324"><title id="title827">Sheet.1477</title><path id="path829" d="M3.41 477.9 C2.53 477.18 1.78 476.46 1.14 475.76 C0.68 476.42 0.31 477.07 0 477.71 C0.6 478.34 1.3 478.97 2.09 479.62 C7.01 483.63 11.9 484 14.65 484 C14.83 484 15.69 482.81 16.19 482.06 C14.96 482.32 9.7 483.01 3.41 477.9 Z" class="st1"/></g></g><g id="group1478-326" transform="translate(2.10339,-7.03041)"><title id="title833">Sheet.1478</title><g id="shape1479-327"><title id="title835">Sheet.1479</title><path id="path837" d="M0 481.65 C0.51 482.41 1.15 483.19 1.95 484 C2.26 483.36 2.64 482.71 3.09 482.05 C2.3 481.2 1.67 480.38 1.19 479.59 C0.72 480.27 0.33 480.97 0 481.65 Z" class="st1"/></g></g><g id="group1480-329" transform="translate(10.5195,-5.3233)"><title id="title841">Sheet.1480</title><g id="shape1481-330"><title id="title843">Sheet.1481</title><path id="path845" d="M0 475.18 C4.49 479.44 9.8 483.06 11.15 484 C11.29 483.65 11.38 483.31 11.48 482.95 C10.03 481.85 6.22 478.79 1.65 474.13 C1.12 474.43 0.57 474.78 0 475.18 Z" class="st1"/></g></g><g id="group1482-332" transform="translate(4.98729,-16.4714)"><title id="title849">Sheet.1482</title><g id="shape1483-333"><title id="title851">Sheet.1483</title><path id="path853" d="M4.95 482.92 C3.85 481.74 2.73 480.47 1.59 479.12 C1.04 479.29 0.51 479.52 0 479.78 C0.84 481.19 1.97 482.61 3.24 484 C3.82 483.58 4.38 483.22 4.95 482.92 Z" class="st1"/></g></g><g id="shape1484-335" transform="translate(8.13763,-14.0503)"><title id="title857">Sheet.1484</title><path id="path859" d="M1.87 480.46 C1.31 480.77 0.57 481.23 0 481.65 C0.72 482.43 1.45 483.24 2.25 484 C2.82 483.6 3.59 483.12 4.12 482.82 C3.38 482.09 2.63 481.3 1.87 480.46 Z" class="st1"/></g><g id="shape1485-337" transform="translate(8.1369,-14.0039)"><title id="title862">Sheet.1485</title><path id="path864" d="M1.67 480.31 C1.1 480.62 0.57 481.01 0 481.43 C0.72 482.22 1.74 483.24 2.54 484 C3.11 483.6 3.59 483.2 4.12 482.89 C3.38 482.17 2.42 481.14 1.67 480.31 Z" class="st1"/></g></g><g id="group1486-339" transform="translate(14.8617,-6.23662)"><title id="title868">Sheet.1486</title><g id="shape1487-340"><title id="title870">Sheet.1487</title><path id="path872" d="M1.34 478.92 C0.22 479.8 0 481.47 0.86 482.62 C1.74 483.79 3.36 484 4.49 483.12 C5.61 482.24 5.83 480.57 4.97 479.41 C4.1 478.26 2.49 478.02 1.34 478.92 Z" class="st1"/></g></g><g id="group1488-342" transform="translate(9.65099,-1.7053E-13)"><title id="title876">Sheet.1488</title><g id="shape1489-343"><title id="title878">Sheet.1489</title><path id="path880" d="M1.24 479.29 C0.2 480.11 -0 481.66 0.79 482.73 C1.6 483.8 3.1 484 4.15 483.18 C5.19 482.36 5.39 480.82 4.59 479.75 C3.79 478.68 2.29 478.47 1.24 479.29 Z" class="st1"/></g></g><g id="group1490-345" transform="translate(0,-5.36433)"><title id="title884">Sheet.1490</title><g id="shape1491-346"><title id="title886">Sheet.1491</title><path id="path888" d="M1.89 476.84 C0.3 478.1 -0 480.42 1.21 482.05 C2.44 483.69 4.72 484 6.31 482.75 C7.9 481.5 8.2 479.17 6.98 477.52 C5.76 475.91 3.48 475.59 1.89 476.84 Z" class="st1"/></g></g></g><g id="shape1464-348"><text id="text893" x="-3.25" y="497.01" class="st2" style="fill:#008bfd;fill-opacity:1">Web app</text></g></g><g id="group1492-350" transform="translate(2.85532,-178.839)"><title id="title897">User Permissions.1492</title><g id="group1493-351"><title id="title899">Sheet.1493</title><g id="group1494-352"><title id="title901">Sheet.1494</title><g id="group1495-353" transform="translate(3.8518,-6.4617)"><title id="title903">Sheet.1495</title><g id="shape1496-354"><title id="title905">Sheet.1496</title><path id="path907" d="M3.62 474.12 C1.32 474.68 0 477.23 0.66 479.78 C1.32 482.34 3.62 484 5.93 483.45 C8.23 482.89 9.55 480.34 8.89 477.79 C8.34 475.12 5.93 473.46 3.62 474.12 Z" class="st1"/></g></g><g id="group1497-356"><title id="title911">Sheet.1497</title><g id="shape1498-357"><title id="title913">Sheet.1498</title><path id="path915" d="M12.41 477.68 C11.97 477.68 11.53 478.45 10.87 478.79 C10.21 479.12 9.55 479.67 7.69 478.79 C5.82 477.9 5.6 477.12 4.06 477.12 C2.53 477.12 0 479.9 0 484 L15.59 484 C15.59 484 15.37 481.23 14.49 479.78 C13.39 477.68 12.85 477.68 12.41 477.68 Z" class="st1"/></g></g></g></g><g id="group1499-359" transform="translate(9.0485,-0.85947)"><title id="title921">Sheet.1499</title><g id="shape1500-360"><title id="title923">Sheet.1500</title><path id="path925" d="M4.77 473.59 L0.65 473.59 C0.33 473.59 0 473.92 0 474.25 L0 477.1 C0 477.43 0.33 477.76 0.76 477.76 L1.52 477.76 L1.52 482.91 C1.52 483.56 1.95 484 2.49 484 C3.03 484 3.47 483.56 3.47 483.02 C3.58 483.02 3.68 483.02 3.68 483.02 C3.68 483.02 3.68 482.47 3.68 482.36 C3.68 482.14 4.01 482.03 4.01 482.03 C4.01 482.03 4.01 481.7 4.01 481.7 C3.68 481.59 3.47 481.37 3.47 481.26 L3.47 480.94 C3.58 480.83 3.68 480.72 3.68 480.72 C3.79 480.61 4.01 480.17 4.01 480.17 C4.01 480.17 3.68 479.73 3.68 479.62 C3.58 479.51 3.58 479.29 3.47 479.18 L3.47 478.96 C3.58 478.42 4.23 477.87 4.23 477.87 L4.77 477.87 C5.09 477.87 5.42 477.54 5.42 477.21 L5.42 474.25 C5.42 473.92 5.2 473.59 4.77 473.59 ZM2.38 483.13 C2.38 483.35 2.38 483.46 2.17 483.46 C1.95 483.46 1.95 483.24 1.95 483.13 L1.95 478.31 C1.95 478.09 2.06 477.98 2.17 477.98 C2.38 477.98 2.38 478.2 2.38 478.31 L2.38 483.13 ZM2.71 475.35 C2.38 475.35 2.06 475.02 2.06 474.69 C2.06 474.36 2.38 474.03 2.71 474.03 C3.03 474.03 3.36 474.36 3.36 474.69 C3.36 475.02 3.14 475.35 2.71 475.35 Z" class="st8"/></g><g id="shape1501-362" transform="translate(1.92482,-0.570755)"><title id="title928">Sheet.1501</title><path id="path930" d="M0.22 484 C0.11 484 0 483.89 0 483.78 L0 478.79 C0 478.67 0.11 478.56 0.22 478.56 C0.33 478.56 0.44 478.67 0.44 478.79 L0.44 483.89 C0.44 484 0.33 484 0.22 484 Z" class="st9"/></g><g id="shape1502-364" transform="translate(2.05993,-8.66317)"><title id="title933">Sheet.1502</title><ellipse id="ellipse935" cx=".659" cy="483.337" class="st9" rx=".659" ry=".666"/></g></g></g><g id="shape1683-366" transform="translate(249.331,-190.886)"><title id="title940">Pentagon.1683</title><path id="path942" d="M15.13 454.1 L-0.78 465.52 L5.3 484 L24.96 484 L31.04 465.52 L15.13 454.1 Z" class="st10"/></g><g id="group1684-368" transform="translate(256.664,-197.335)"><title id="title945">User Permissions.1684</title><g id="group1685-369"><title id="title947">Sheet.1685</title><g id="group1686-370"><title id="title949">Sheet.1686</title><g id="group1687-371" transform="translate(3.8518,-6.4617)"><title id="title951">Sheet.1687</title><g id="shape1688-372"><title id="title953">Sheet.1688</title><path id="path955" d="M3.62 474.12 C1.32 474.68 0 477.23 0.66 479.78 C1.32 482.34 3.62 484 5.93 483.45 C8.23 482.89 9.55 480.34 8.89 477.79 C8.34 475.12 5.93 473.46 3.62 474.12 Z" class="st1"/></g></g><g id="group1689-374"><title id="title959">Sheet.1689</title><g id="shape1690-375"><title id="title961">Sheet.1690</title><path id="path963" d="M12.41 477.68 C11.97 477.68 11.53 478.45 10.87 478.79 C10.21 479.12 9.55 479.67 7.69 478.79 C5.82 477.9 5.6 477.12 4.06 477.12 C2.53 477.12 0 479.9 0 484 L15.59 484 C15.59 484 15.37 481.23 14.49 479.78 C13.39 477.68 12.85 477.68 12.41 477.68 Z" class="st1"/></g></g></g></g><g id="group1691-377" transform="translate(9.0485,-0.85947)"><title id="title969">Sheet.1691</title><g id="shape1692-378"><title id="title971">Sheet.1692</title><path id="path973" d="M4.77 473.59 L0.65 473.59 C0.33 473.59 0 473.92 0 474.25 L0 477.1 C0 477.43 0.33 477.76 0.76 477.76 L1.52 477.76 L1.52 482.91 C1.52 483.56 1.95 484 2.49 484 C3.03 484 3.47 483.56 3.47 483.02 C3.58 483.02 3.68 483.02 3.68 483.02 C3.68 483.02 3.68 482.47 3.68 482.36 C3.68 482.14 4.01 482.03 4.01 482.03 C4.01 482.03 4.01 481.7 4.01 481.7 C3.68 481.59 3.47 481.37 3.47 481.26 L3.47 480.94 C3.58 480.83 3.68 480.72 3.68 480.72 C3.79 480.61 4.01 480.17 4.01 480.17 C4.01 480.17 3.68 479.73 3.68 479.62 C3.58 479.51 3.58 479.29 3.47 479.18 L3.47 478.96 C3.58 478.42 4.23 477.87 4.23 477.87 L4.77 477.87 C5.09 477.87 5.42 477.54 5.42 477.21 L5.42 474.25 C5.42 473.92 5.2 473.59 4.77 473.59 ZM2.38 483.13 C2.38 483.35 2.38 483.46 2.17 483.46 C1.95 483.46 1.95 483.24 1.95 483.13 L1.95 478.31 C1.95 478.09 2.06 477.98 2.17 477.98 C2.38 477.98 2.38 478.2 2.38 478.31 L2.38 483.13 ZM2.71 475.35 C2.38 475.35 2.06 475.02 2.06 474.69 C2.06 474.36 2.38 474.03 2.71 474.03 C3.03 474.03 3.36 474.36 3.36 474.69 C3.36 475.02 3.14 475.35 2.71 475.35 Z" class="st8"/></g><g id="shape1693-380" transform="translate(1.92482,-0.570755)"><title id="title976">Sheet.1693</title><path id="path978" d="M0.22 484 C0.11 484 0 483.89 0 483.78 L0 478.79 C0 478.67 0.11 478.56 0.22 478.56 C0.33 478.56 0.44 478.67 0.44 478.79 L0.44 483.89 C0.44 484 0.33 484 0.22 484 Z" class="st9"/></g><g id="shape1694-382" transform="translate(2.05993,-8.66317)"><title id="title981">Sheet.1694</title><ellipse id="ellipse983" cx=".659" cy="483.337" class="st9" rx=".659" ry=".666"/></g></g></g></g></svg>